<?xml version="1.0" encoding="utf-8"?>
<!-- Generator: Adobe Illustrator 28.1.0, SVG Export Plug-In . SVG Version: 6.00 Build 0)  -->
<svg version="1.1" id="Layer_2" xmlns="http://www.w3.org/2000/svg" xmlns:xlink="http://www.w3.org/1999/xlink" x="0px" y="0px"
	 viewBox="0 0 155.9 23.7" style="enable-background:new 0 0 155.9 23.7;" xml:space="preserve">
<style type="text/css">
	.st0{fill:#4CFF5C;}
	.st1{fill:#FFFFFF;}
</style>
<g id="Layer_1-2">
	<g>
		<g>
			<path class="st0" d="M85.5,7.6c3-0.6,6.1-1.7,9.1-3.2c1.2-0.6,1.9-1,2.6-1.5l2.9,4.3c-0.5,0.2-0.9,0.4-1.3,0.6
				c-4.4,2.2-8.3,3.4-13.2,4.3v3c0,2,0,2.2,0.4,2.6c0.4,0.3,1.7,0.5,3.9,0.5c1.5,0,3.6-0.1,5.3-0.3c2-0.2,3.1-0.4,4.7-0.9l0.2,5
				c-0.7,0-1.3,0-2.8,0.2c-2.7,0.2-5.8,0.4-7.9,0.4c-3.7,0-5.6-0.3-6.8-1.2c-0.8-0.6-1.3-1.5-1.5-2.9C81,18,81,17.2,81,15.6V3.9
				c0-1.8,0-2.6-0.2-3.6h5.1c-0.1,0.9-0.2,1.5-0.2,3.6L85.5,7.6L85.5,7.6z"/>
			<path class="st0" d="M108.1,21.2v1.9h-4.9c0.2-1.5,0.2-2.4,0.2-4.4v-14c0-1.2,0-2-0.1-3.1c0.9,0.1,1.5,0.1,3.3,0.1h14.6
				c1.7,0,2.1,0,3.4-0.1c-0.1,1-0.1,1.9-0.1,3.2v13.8c0,2.1,0.1,3.4,0.2,4.5h-4.9v-1.8L108.1,21.2L108.1,21.2z M119.8,6.1h-11.7
				v10.8h11.7V6.1L119.8,6.1z"/>
			<path class="st0" d="M129.7,6.7c3.1,1.2,5.1,2.2,7.6,3.8l-2.3,4.3c-2.3-1.7-4.7-3-7.8-4.2L129.7,6.7L129.7,6.7z M128,18.5
				c2.4,0,5.8-0.8,8.4-1.8c3.2-1.2,5.6-3.1,7.6-5.8c1.3-1.8,2.1-3.4,3-6c1.6,1.7,2.4,2.4,4,3.4c-1.4,3.3-2.5,5.1-4.2,7.1
				c-2.7,3.1-6.1,5.3-10.5,6.7c-1.6,0.5-2.8,0.8-4.9,1.2c-0.8,0.1-1.3,0.3-1.9,0.4L128,18.5L128,18.5z M131.7,0
				c3.2,1.2,5.5,2.2,7.8,3.6l-2.4,4.2c-2.8-1.8-5.1-2.9-7.8-3.9L131.7,0L131.7,0z"/>
			<path class="st0" d="M149.1,20.1c0-2,1.5-3.5,3.4-3.5s3.4,1.5,3.4,3.5s-1.5,3.5-3.4,3.5S149.1,22.1,149.1,20.1z M152.5,23
				c1.6,0,2.8-1.2,2.8-2.9s-1.2-2.9-2.8-2.9s-2.8,1.2-2.8,2.9S150.9,23,152.5,23z M151.1,18.1h1.6c0.9,0,1.4,0.4,1.4,1.1
				c0,0.5-0.3,0.9-0.8,1l0,0c1,0.2,0.7,1.6,0.9,1.7l0,0h-1c-0.2-0.2,0.1-1.4-0.8-1.4H152V22h-0.9V18.1z M152.4,19.8
				c0.4,0,0.7-0.1,0.7-0.5s-0.3-0.5-0.7-0.5H152v1H152.4z"/>
		</g>
		<g>
			<path class="st1" d="M20.5,0.5v22.6h-6.4v-8.7H6.4v8.7H0V0.5h6.4v8.3h7.8V0.5H20.5z"/>
			<path class="st1" d="M23.9,0.5h6.4v22.6h-6.4V0.5z"/>
			<path class="st1" d="M53.4,23.1h-6.5c-0.3-0.6-0.4-1.3-0.5-2.3l-0.1-2.6c-0.1-2.6-1.3-3-3.1-3h-3.3V23h-6.4V0.5h11.1
				c6.2,0,8.4,3.2,8.4,6.7c0,2.2-1.1,4.2-3.5,5.3c2.6,1,3,2.9,3.1,5.3l0.1,3C52.9,21.8,53.1,22.6,53.4,23.1z M43.7,10.7
				c1.9,0,2.8-0.9,2.8-2.6s-1-2.6-2.8-2.6h-3.8v5.2C39.9,10.7,43.7,10.7,43.7,10.7z"/>
			<path class="st1" d="M54.5,11.8C54.5,4.6,59.3,0,66.4,0s11.9,4.6,11.9,11.8s-4.9,11.8-11.9,11.8S54.5,19,54.5,11.8z M71.7,11.8
				c0-4-2.1-6.3-5.3-6.3s-5.3,2.3-5.3,6.3s2.1,6.3,5.3,6.3C69.6,18.1,71.7,15.9,71.7,11.8z"/>
		</g>
	</g>
</g>
</svg>
