<?xml version="1.0" encoding="UTF-8"?>
<svg id="Layer_2" data-name="Layer 2" xmlns="http://www.w3.org/2000/svg" viewBox="0 0 314.42 120.49">
  <defs>
    <style>
      .cls-1 {
        fill: #edf0e7;
      }

      .cls-2 {
        fill: #4cff5c;
      }
    </style>
  </defs>
  <g id="Layer_1-2" data-name="Layer 1">
    <g>
      <g>
        <path class="cls-2" d="M21.98,41.48c13.24-2.79,27.33-7.77,40.57-14.21,5.47-2.67,8.38-4.5,11.42-6.92l13.12,19.07q-3.4,1.58-5.95,2.79c-19.8,9.6-37.05,15.18-59.16,19.44v13.6c0,8.99,.12,9.96,1.7,11.54,1.7,1.46,7.77,2.31,17.61,2.31,6.8,0,16.28-.49,23.56-1.22,8.99-.97,13.73-1.82,20.89-3.89l.85,22.47c-3.16,0-5.95,.24-12.51,.85-12.15,1.09-25.75,1.82-35.47,1.82-16.64,0-25.02-1.46-30.61-5.34-3.77-2.79-5.95-6.8-6.8-13.12-.36-2.43-.49-5.95-.49-12.88V24.96c0-7.9-.12-11.66-.73-16.16H22.71c-.61,4.13-.73,6.92-.73,16.28v16.4Z"/>
        <path class="cls-2" d="M123.04,102.33v8.38h-22.11c.73-6.68,.97-10.81,.97-19.8V28.48c0-5.22-.12-8.99-.48-13.97,4.25,.36,6.68,.48,14.7,.48h65.47c7.53,0,9.35,0,15.06-.48-.24,4.25-.37,8.62-.37,14.33v61.59c0,9.35,.24,15.18,.85,20.04h-21.99v-8.14h-52.11Zm52.11-67.9h-52.11v48.47h52.11V34.43Z"/>
        <path class="cls-2" d="M219.43,37.1c13.97,5.47,22.96,9.96,33.89,17.13l-10.33,19.07c-10.45-7.77-21.14-13.6-34.74-18.83l11.18-17.37Zm-7.65,53.08c10.69-.24,25.75-3.4,37.54-8.02,14.33-5.59,25.14-13.97,34.01-26.11,5.83-8.14,9.35-15.18,13.36-26.73,7.29,7.65,10.81,10.81,17.73,15.06-6.19,14.57-11.17,22.96-18.95,31.7-12.27,14.09-27.33,23.56-46.89,29.76-7.17,2.31-12.39,3.52-22.11,5.34-3.52,.61-5.95,1.22-8.62,1.94l-6.07-22.96ZM228.54,7.34c14.33,5.22,24.66,9.96,34.86,15.91l-10.81,18.58c-12.51-8.14-22.59-13.12-34.86-17.37l10.81-17.13Z"/>
      </g>
      <g>
        <g>
          <g>
            <path class="cls-1" d="M60.79,120.27c-3.91,0-7.08-3.18-7.08-7.08s3.18-7.08,7.08-7.08,7.08,3.18,7.08,7.08-3.18,7.08-7.08,7.08Zm0-13.53c-3.55,0-6.45,2.89-6.45,6.45s2.89,6.45,6.45,6.45,6.45-2.89,6.45-6.45-2.89-6.45-6.45-6.45Z"/>
            <path class="cls-1" d="M64.53,120.27c-3.91,0-7.08-3.18-7.08-7.08s3.18-7.08,7.08-7.08,7.08,3.18,7.08,7.08-3.18,7.08-7.08,7.08Zm0-13.53c-3.55,0-6.45,2.89-6.45,6.45s2.89,6.45,6.45,6.45,6.45-2.89,6.45-6.45-2.89-6.45-6.45-6.45Z"/>
            <path class="cls-1" d="M68.26,120.27c-3.91,0-7.08-3.18-7.08-7.08s3.18-7.08,7.08-7.08,7.08,3.18,7.08,7.08-3.18,7.08-7.08,7.08Zm0-13.53c-3.55,0-6.45,2.89-6.45,6.45s2.89,6.45,6.45,6.45,6.45-2.89,6.45-6.45-2.89-6.45-6.45-6.45Z"/>
          </g>
          <g>
            <path class="cls-1" d="M85.46,120.27c-3.9,0-7.07-3.18-7.07-7.08s3.17-7.08,7.07-7.08h.13l.1,.1c1.78,1.67,2.8,4.22,2.8,6.99s-1.02,5.32-2.8,6.99l-.1,.1h-.13Zm-.12-13.53c-3.49,.07-6.31,2.94-6.31,6.44s2.82,6.37,6.31,6.44c1.6-1.55,2.52-3.89,2.52-6.44s-.92-4.89-2.52-6.44Z"/>
            <path class="cls-1" d="M85.31,120.27l-.11-.15c-1.75-1.67-2.75-4.19-2.75-6.94s1-5.27,2.76-6.94l.11-.14h.17c3.9,0,7.07,3.18,7.07,7.08s-3.17,7.08-7.07,7.08h-.17Zm.3-13.53c-1.61,1.55-2.52,3.89-2.52,6.44s.94,4.91,2.52,6.44c3.49-.07,6.31-2.94,6.31-6.44s-2.82-6.37-6.31-6.44Z"/>
            <g>
              <path class="cls-1" d="M85.48,111.13c-.85,0-1.67-.14-2.45-.43-1.06-.39-2.02-1.04-2.79-1.87l.47-.43c.69,.76,1.57,1.34,2.54,1.7,1.42,.52,3.02,.51,4.44,0,.96-.36,1.84-.94,2.53-1.7l.47,.43c-.76,.83-1.73,1.48-2.78,1.87-.78,.28-1.6,.43-2.43,.43Z"/>
              <path class="cls-1" d="M90.22,117.97c-.69-.76-1.57-1.35-2.53-1.7-1.44-.53-3.04-.51-4.43,0-.96,.35-1.84,.94-2.53,1.7l-.47-.43c.76-.83,1.73-1.48,2.79-1.87,1.57-.58,3.32-.57,4.87,0,1.06,.39,2.02,1.04,2.78,1.87l-.47,.43Z"/>
            </g>
            <rect class="cls-1" x="78.71" y="112.86" width="13.53" height=".64"/>
            <rect class="cls-1" x="85.15" y="106.42" width=".64" height="13.53"/>
          </g>
          <g>
            <path class="cls-1" d="M43.58,120.27c-3.91,0-7.08-3.18-7.08-7.08s3.18-7.08,7.08-7.08,7.08,3.18,7.08,7.08-3.18,7.08-7.08,7.08Zm0-13.53c-3.55,0-6.45,2.89-6.45,6.45s2.89,6.45,6.45,6.45,6.45-2.89,6.45-6.45-2.89-6.45-6.45-6.45Z"/>
            <g>
              <path class="cls-1" d="M43.58,116.81l-4.64-3.63,4.64-3.62,4.64,3.62-4.64,3.63Zm-3.61-3.63l3.61,2.82,3.61-2.82-3.61-2.82-3.61,2.82Z"/>
              <path class="cls-1" d="M43.58,114.63c-.8,0-1.45-.65-1.45-1.45s.65-1.45,1.45-1.45,1.45,.65,1.45,1.45-.65,1.45-1.45,1.45Zm0-2.26c-.45,0-.81,.36-.81,.81s.36,.81,.81,.81,.81-.36,.81-.81-.36-.81-.81-.81Z"/>
            </g>
          </g>
        </g>
        <g>
          <path class="cls-1" d="M101.36,108.82h-1.16l-.26,.74h-.54l1.1-2.98h.58l1.09,2.98h-.55l-.26-.74Zm-.15-.43l-.25-.74-.18-.59-.18,.59-.26,.74h.86Z"/>
          <path class="cls-1" d="M102.45,108.5c0-.71,.4-1.15,1.03-1.15,.53,0,.88,.28,.96,.79h-.47c-.06-.26-.22-.39-.48-.39-.37,0-.56,.27-.56,.74s.2,.74,.55,.74c.26,0,.42-.15,.48-.42h.47c-.08,.51-.42,.81-.97,.81-.62,0-1.02-.42-1.02-1.13Z"/>
          <path class="cls-1" d="M106.07,107.35v.46s-.09,0-.13,0c-.33,0-.57,.21-.58,.64v1.11h-.49v-2.16h.47v.39c.1-.29,.3-.46,.59-.46,.05,0,.09,0,.14,.01Z"/>
          <path class="cls-1" d="M108.4,108.62h-1.59c.02,.4,.24,.62,.58,.62,.26,0,.42-.12,.5-.35l.47,.04c-.13,.46-.49,.7-.97,.7-.68,0-1.08-.49-1.08-1.15s.39-1.12,1.04-1.12,1.05,.43,1.05,1.15v.12Zm-1.59-.34h1.1c-.04-.35-.24-.55-.55-.55s-.52,.2-.55,.55Z"/>
          <path class="cls-1" d="M110.77,106.59v2.98h-.43v-.3c-.15,.23-.38,.36-.67,.36-.56,0-.94-.48-.94-1.16s.39-1.11,.91-1.11c.28,0,.5,.1,.64,.29v-1.06h.49Zm-.46,1.88c0-.45-.23-.7-.55-.7s-.54,.25-.54,.7,.21,.73,.54,.73,.55-.28,.55-.73Z"/>
          <path class="cls-1" d="M111.36,106.59h.49v.48h-.49v-.48Zm0,.82h.49v2.16h-.49v-2.16Z"/>
          <path class="cls-1" d="M113.05,108.96c0,.16,.05,.21,.2,.21h.24v.4h-.39c-.38,0-.54-.16-.54-.54v-1.26h-.31s0-.36,0-.36h.31s0-.66,0-.66h.49v.68h.44s0,.36,0,.36l-.44-.02v1.2Z"/>
          <path class="cls-1" d="M115.25,109.56c-.02-.08-.04-.17-.05-.25-.15,.19-.4,.31-.71,.31-.45,0-.74-.25-.74-.64,0-.35,.22-.58,.69-.66l.67-.11s.04,0,.06-.02v-.19c0-.19-.14-.28-.43-.28s-.41,.09-.44,.33h-.46c.04-.48,.34-.7,.91-.7s.89,.24,.89,.74v.97c0,.18,.02,.3,.09,.5h-.49Zm-.07-.81v-.23l-.6,.1c-.24,.04-.35,.15-.35,.32,0,.19,.14,.3,.38,.3,.31,0,.57-.21,.57-.5Z"/>
          <path class="cls-1" d="M119.27,108.1v1.46h-.49v-1.4c0-.22-.11-.38-.33-.38-.24,0-.46,.18-.46,.61v1.16h-.49v-1.4c0-.22-.11-.38-.33-.38-.24,0-.45,.19-.45,.62v1.15h-.49v-2.16h.47v.3c.13-.23,.34-.36,.62-.36,.3,0,.51,.14,.61,.38,.14-.26,.36-.38,.66-.38,.43,0,.68,.28,.68,.75Z"/>
          <path class="cls-1" d="M119.72,108.49c0-.67,.44-1.14,1.08-1.14s1.07,.46,1.07,1.13-.44,1.14-1.07,1.14-1.07-.47-1.07-1.14Zm1.67,0c0-.45-.22-.74-.6-.74s-.59,.29-.59,.74,.23,.74,.59,.74,.6-.3,.6-.75Z"/>
          <path class="cls-1" d="M122.2,108.9h.46c.03,.24,.2,.37,.5,.37,.28,0,.45-.1,.45-.29,0-.14-.1-.22-.31-.26l-.43-.09c-.42-.09-.61-.29-.61-.61,0-.41,.31-.67,.84-.67s.85,.24,.91,.69h-.46c-.04-.21-.2-.33-.46-.33-.23,0-.38,.09-.38,.26,0,.13,.08,.21,.29,.25l.44,.09c.44,.1,.63,.29,.63,.61,0,.44-.35,.7-.93,.7s-.89-.25-.94-.73Z"/>
          <path class="cls-1" d="M127.46,108.09v1.47h-.49v-1.37c0-.26-.12-.41-.37-.41-.27,0-.51,.18-.51,.6v1.17h-.49v-2.16h.47v.3c.15-.23,.38-.36,.68-.36,.45,0,.72,.28,.72,.74Z"/>
          <path class="cls-1" d="M129.4,109.56c-.02-.08-.04-.17-.05-.25-.15,.19-.4,.31-.71,.31-.45,0-.74-.25-.74-.64,0-.35,.22-.58,.69-.66l.67-.11s.04,0,.06-.02v-.19c0-.19-.14-.28-.43-.28s-.41,.09-.44,.33h-.46c.04-.48,.34-.7,.91-.7s.89,.24,.89,.74v.97c0,.18,.02,.3,.09,.5h-.49Zm-.07-.81v-.23l-.6,.1c-.24,.04-.35,.15-.35,.32,0,.19,.14,.3,.38,.3,.31,0,.57-.21,.57-.5Z"/>
          <path class="cls-1" d="M132.67,107.35v.46s-.09,0-.13,0c-.33,0-.57,.21-.58,.64v1.11h-.49v-2.16h.47v.39c.1-.29,.3-.46,.59-.46,.05,0,.09,0,.14,.01Z"/>
          <path class="cls-1" d="M135,108.62h-1.59c.02,.4,.24,.62,.58,.62,.26,0,.42-.12,.5-.35l.47,.04c-.13,.46-.49,.7-.97,.7-.68,0-1.08-.49-1.08-1.15s.39-1.12,1.04-1.12,1.05,.43,1.05,1.15v.12Zm-1.59-.34h1.1c-.04-.35-.24-.55-.55-.55s-.52,.2-.55,.55Z"/>
          <path class="cls-1" d="M135.46,106.59h.49v2.98h-.49v-2.98Z"/>
          <path class="cls-1" d="M137.89,109.56c-.02-.08-.04-.17-.05-.25-.15,.19-.4,.31-.71,.31-.45,0-.74-.25-.74-.64,0-.35,.22-.58,.69-.66l.67-.11s.04,0,.06-.02v-.19c0-.19-.14-.28-.43-.28s-.41,.09-.44,.33h-.46c.04-.48,.34-.7,.91-.7s.89,.24,.89,.74v.97c0,.18,.02,.3,.09,.5h-.49Zm-.07-.81v-.23l-.6,.1c-.24,.04-.35,.15-.35,.32,0,.19,.14,.3,.38,.3,.31,0,.57-.21,.57-.5Z"/>
          <path class="cls-1" d="M140.27,108.82h.47c-.08,.48-.38,.77-.86,.81l-.14,.22h.07c.25,0,.42,.13,.42,.37,0,.27-.23,.43-.58,.43h-.17v-.25h.13c.18,0,.24-.06,.24-.14,0-.08-.04-.12-.15-.12h-.13l-.13-.2,.19-.3c-.53-.07-.86-.47-.86-1.12,0-.71,.4-1.15,1.03-1.15,.53,0,.88,.28,.96,.79h-.47c-.06-.26-.22-.39-.48-.39-.37,0-.56,.27-.56,.74s.2,.74,.55,.74c.26,0,.42-.15,.48-.42Z"/>
          <path class="cls-1" d="M142.55,109.56c-.02-.08-.04-.17-.05-.25-.15,.19-.4,.31-.71,.31-.45,0-.74-.25-.74-.64,0-.35,.22-.58,.69-.66l.67-.11s.04,0,.06-.02v-.19c0-.19-.14-.28-.43-.28s-.41,.09-.44,.33h-.46c.04-.48,.34-.7,.91-.7s.89,.24,.89,.74v.97c0,.18,.02,.3,.09,.5h-.49Zm-.95-2.47h-.37c0-.5,.22-.69,.51-.69,.34,0,.42,.28,.63,.28,.12,0,.18-.09,.18-.28h.37c0,.5-.21,.69-.51,.69-.34,0-.42-.28-.63-.28-.12,0-.18,.1-.18,.28Zm.88,1.66v-.23l-.6,.1c-.24,.04-.35,.15-.35,.32,0,.19,.14,.3,.38,.3,.31,0,.57-.21,.57-.5Z"/>
          <path class="cls-1" d="M143.41,108.49c0-.67,.44-1.14,1.08-1.14s1.07,.46,1.07,1.13-.44,1.14-1.07,1.14-1.07-.47-1.07-1.14Zm1.67,0c0-.45-.22-.74-.6-.74s-.59,.29-.59,.74,.23,.74,.59,.74,.6-.3,.6-.75Z"/>
          <path class="cls-1" d="M149.01,106.59v2.98h-.43v-.3c-.15,.23-.38,.36-.67,.36-.56,0-.94-.48-.94-1.16s.39-1.11,.91-1.11c.28,0,.5,.1,.64,.29v-1.06h.49Zm-.46,1.88c0-.45-.23-.7-.55-.7s-.54,.25-.54,.7,.21,.73,.54,.73,.55-.28,.55-.73Z"/>
          <path class="cls-1" d="M151.56,108.62h-1.59c.02,.4,.24,.62,.58,.62,.26,0,.42-.12,.5-.35l.47,.04c-.13,.46-.49,.7-.97,.7-.68,0-1.08-.49-1.08-1.15s.39-1.12,1.04-1.12,1.05,.43,1.05,1.15v.12Zm-1.59-.34h1.1c-.04-.35-.24-.55-.55-.55s-.52,.2-.55,.55Z"/>
          <path class="cls-1" d="M153.1,106.59h.49v2.98h-.49v-2.98Z"/>
          <path class="cls-1" d="M154.06,108.49c0-.67,.44-1.14,1.08-1.14s1.07,.46,1.07,1.13-.44,1.14-1.07,1.14-1.07-.47-1.07-1.14Zm1.67,0c0-.45-.22-.74-.6-.74s-.59,.29-.59,.74,.23,.74,.59,.74,.6-.3,.6-.75Z"/>
          <path class="cls-1" d="M158.52,108.09v1.47h-.49v-1.37c0-.26-.12-.41-.37-.41-.27,0-.51,.18-.51,.6v1.17h-.49v-2.16h.47v.3c.15-.23,.38-.36,.68-.36,.45,0,.72,.28,.72,.74Z"/>
          <path class="cls-1" d="M161.03,107.41v2.14c0,.63-.39,.92-1.02,.92-.56,0-.9-.23-.95-.68h.46c.05,.22,.21,.31,.49,.31,.39,0,.54-.17,.54-.53v-.28c-.14,.19-.36,.3-.63,.3-.56,0-.93-.47-.93-1.14s.39-1.09,.93-1.09c.3,0,.53,.12,.67,.35v-.3h.45Zm-.48,1.04c0-.44-.23-.69-.55-.69s-.54,.26-.54,.69,.21,.72,.54,.72,.55-.27,.55-.71Z"/>
          <path class="cls-1" d="M161.49,108.49c0-.67,.44-1.14,1.08-1.14s1.07,.46,1.07,1.13-.44,1.14-1.07,1.14-1.07-.47-1.07-1.14Zm1.67,0c0-.45-.22-.74-.6-.74s-.59,.29-.59,.74,.23,.74,.59,.74,.6-.3,.6-.75Z"/>
          <path class="cls-1" d="M167.21,108.46c0,.68-.37,1.17-.94,1.17-.25,0-.47-.1-.61-.29v1.08h-.49v-3.01h.43v.31c.15-.23,.39-.36,.7-.36,.52,0,.91,.42,.91,1.1Zm-.48,0c0-.44-.21-.69-.54-.69s-.55,.25-.55,.7,.23,.73,.55,.73,.54-.29,.54-.74Z"/>
          <path class="cls-1" d="M168.86,107.35v.46s-.09,0-.13,0c-.33,0-.57,.21-.58,.64v1.11h-.49v-2.16h.47v.39c.1-.29,.3-.46,.59-.46,.05,0,.09,0,.14,.01Z"/>
          <path class="cls-1" d="M170.56,109.56c-.02-.08-.04-.17-.05-.25-.15,.19-.4,.31-.71,.31-.45,0-.74-.25-.74-.64,0-.35,.22-.58,.69-.66l.67-.11s.04,0,.06-.02v-.19c0-.19-.14-.28-.43-.28s-.41,.09-.44,.33h-.46c.04-.48,.34-.7,.91-.7s.89,.24,.89,.74v.97c0,.18,.02,.3,.09,.5h-.49Zm-.07-.81v-.23l-.6,.1c-.24,.04-.35,.15-.35,.32,0,.19,.14,.3,.38,.3,.31,0,.57-.21,.57-.5Z"/>
          <path class="cls-1" d="M173.22,109.17v.4h-1.83v-.37l1.18-1.39h-1.09v-.4h1.68v.36l-1.18,1.4h1.24Z"/>
          <path class="cls-1" d="M173.5,108.49c0-.67,.44-1.14,1.08-1.14s1.07,.46,1.07,1.13-.44,1.14-1.07,1.14-1.07-.47-1.07-1.14Zm1.67,0c0-.45-.22-.74-.6-.74s-.59,.29-.59,.74,.23,.74,.59,.74,.6-.3,.6-.75Z"/>
          <path class="cls-1" d="M176.13,109.96h.06c.15,0,.23-.08,.23-.24v-.16h-.3s0-.52,0-.52h.57v.66c0,.33-.17,.5-.51,.5h-.06v-.24Z"/>
          <path class="cls-1" d="M180.26,108.09v1.47h-.49v-1.37c0-.26-.12-.41-.37-.41-.27,0-.51,.18-.51,.6v1.17h-.49v-2.16h.47v.3c.15-.23,.38-.36,.68-.36,.45,0,.72,.28,.72,.74Z"/>
          <path class="cls-1" d="M182.21,109.56c-.02-.08-.04-.17-.05-.25-.15,.19-.4,.31-.71,.31-.45,0-.74-.25-.74-.64,0-.35,.22-.58,.69-.66l.67-.11s.04,0,.06-.02v-.19c0-.19-.14-.28-.43-.28s-.41,.09-.44,.33h-.46c.04-.48,.34-.7,.91-.7s.89,.24,.89,.74v.97c0,.18,.02,.3,.09,.5h-.49Zm-.07-.81v-.23l-.6,.1c-.24,.04-.35,.15-.35,.32,0,.19,.14,.3,.38,.3,.31,0,.57-.21,.57-.5Z"/>
          <path class="cls-1" d="M184.16,108.5c0-.71,.4-1.15,1.03-1.15,.53,0,.88,.28,.96,.79h-.47c-.06-.26-.22-.39-.48-.39-.37,0-.56,.27-.56,.74s.2,.74,.55,.74c.26,0,.42-.15,.48-.42h.47c-.08,.51-.42,.81-.97,.81-.62,0-1.02-.42-1.02-1.13Z"/>
          <path class="cls-1" d="M186.46,108.49c0-.67,.44-1.14,1.08-1.14s1.07,.46,1.07,1.13-.44,1.14-1.07,1.14-1.07-.47-1.07-1.14Zm1.67,0c0-.45-.22-.74-.6-.74s-.59,.29-.59,.74,.23,.74,.59,.74,.6-.3,.6-.75Z"/>
          <path class="cls-1" d="M190.93,108.09v1.47h-.49v-1.37c0-.26-.12-.41-.37-.41-.27,0-.51,.18-.51,.6v1.17h-.49v-2.16h.47v.3c.15-.23,.38-.36,.68-.36,.45,0,.72,.28,.72,.74Z"/>
          <path class="cls-1" d="M191.39,108.9h.46c.03,.24,.2,.37,.5,.37,.28,0,.45-.1,.45-.29,0-.14-.1-.22-.31-.26l-.43-.09c-.42-.09-.61-.29-.61-.61,0-.41,.31-.67,.84-.67s.85,.24,.91,.69h-.46c-.04-.21-.2-.33-.46-.33-.23,0-.38,.09-.38,.26,0,.13,.08,.21,.29,.25l.44,.09c.44,.1,.63,.29,.63,.61,0,.44-.35,.7-.93,.7s-.89-.25-.94-.73Z"/>
          <path class="cls-1" d="M194.32,108.96c0,.16,.05,.21,.2,.21h.24v.4h-.39c-.38,0-.54-.16-.54-.54v-1.26h-.31s0-.36,0-.36h.31s0-.66,0-.66h.49v.68h.44s0,.36,0,.36l-.44-.02v1.2Z"/>
          <path class="cls-1" d="M196.35,107.35v.46s-.09,0-.13,0c-.33,0-.57,.21-.58,.64v1.11h-.49v-2.16h.47v.39c.1-.29,.3-.46,.59-.46,.05,0,.09,0,.14,.01Z"/>
          <path class="cls-1" d="M198.57,107.41v2.16h-.47v-.3c-.16,.23-.38,.35-.68,.35-.45,0-.72-.28-.72-.74v-1.47h.49v1.37c0,.26,.12,.41,.37,.41,.27,0,.51-.18,.51-.6v-1.17h.49Z"/>
          <path class="cls-1" d="M200.55,108.82h.47c-.08,.48-.38,.77-.86,.81l-.14,.22h.07c.25,0,.42,.13,.42,.37,0,.27-.23,.43-.58,.43h-.17v-.25h.13c.18,0,.24-.06,.24-.14,0-.08-.04-.12-.15-.12h-.13l-.13-.2,.19-.3c-.53-.07-.86-.47-.86-1.12,0-.71,.4-1.15,1.03-1.15,.53,0,.88,.28,.96,.79h-.47c-.06-.26-.22-.39-.48-.39-.37,0-.56,.27-.56,.74s.2,.74,.55,.74c.26,0,.42-.15,.48-.42Z"/>
          <path class="cls-1" d="M202.83,109.56c-.02-.08-.04-.17-.05-.25-.15,.19-.4,.31-.71,.31-.45,0-.74-.25-.74-.64,0-.35,.22-.58,.69-.66l.67-.11s.04,0,.06-.02v-.19c0-.19-.14-.28-.43-.28s-.41,.09-.44,.33h-.46c.04-.48,.34-.7,.91-.7s.89,.24,.89,.74v.97c0,.18,.02,.3,.09,.5h-.49Zm-.95-2.47h-.37c0-.5,.22-.69,.51-.69,.34,0,.42,.28,.63,.28,.12,0,.18-.09,.18-.28h.37c0,.5-.21,.69-.51,.69-.34,0-.42-.28-.63-.28-.12,0-.18,.1-.18,.28Zm.88,1.66v-.23l-.6,.1c-.24,.04-.35,.15-.35,.32,0,.19,.14,.3,.38,.3,.31,0,.57-.21,.57-.5Z"/>
          <path class="cls-1" d="M203.69,108.49c0-.67,.44-1.14,1.08-1.14s1.07,.46,1.07,1.13-.44,1.14-1.07,1.14-1.07-.47-1.07-1.14Zm1.67,0c0-.45-.22-.74-.6-.74s-.59,.29-.59,.74,.23,.74,.59,.74,.6-.3,.6-.75Z"/>
          <path class="cls-1" d="M208.74,109.56c-.02-.08-.04-.17-.05-.25-.15,.19-.4,.31-.71,.31-.45,0-.74-.25-.74-.64,0-.35,.22-.58,.69-.66l.67-.11s.04,0,.06-.02v-.19c0-.19-.14-.28-.43-.28s-.41,.09-.44,.33h-.46c.04-.48,.34-.7,.91-.7s.89,.24,.89,.74v.97c0,.18,.02,.3,.09,.5h-.49Zm-.57-2.41l-.54-.62h.62l.28,.62h-.36Zm.5,1.6v-.23l-.6,.1c-.24,.04-.35,.15-.35,.32,0,.19,.14,.3,.38,.3,.31,0,.57-.21,.57-.5Z"/>
          <path class="cls-1" d="M213.04,108.48v.42h-.46v.66h-.5v-.66h-1.36v-.5l1.39-1.81h.48v1.89h.46Zm-.97-1.17h0l-.89,1.17h.9v-1.17Z"/>
          <path class="cls-1" d="M217.64,108.1v1.46h-.49v-1.4c0-.22-.11-.38-.33-.38-.24,0-.46,.18-.46,.61v1.16h-.49v-1.4c0-.22-.11-.38-.33-.38-.24,0-.45,.19-.45,.62v1.15h-.49v-2.16h.47v.3c.13-.23,.34-.36,.62-.36,.3,0,.51,.14,.61,.38,.14-.26,.36-.38,.66-.38,.43,0,.68,.28,.68,.75Z"/>
          <path class="cls-1" d="M219.58,109.56c-.02-.08-.04-.17-.05-.25-.15,.19-.4,.31-.71,.31-.45,0-.74-.25-.74-.64,0-.35,.22-.58,.69-.66l.67-.11s.04,0,.06-.02v-.19c0-.19-.14-.28-.43-.28s-.41,.09-.44,.33h-.46c.04-.48,.34-.7,.91-.7s.89,.24,.89,.74v.97c0,.18,.02,.3,.09,.5h-.49Zm-.95-2.47h-.37c0-.5,.22-.69,.51-.69,.34,0,.42,.28,.63,.28,.12,0,.18-.09,.18-.28h.37c0,.5-.21,.69-.51,.69-.34,0-.42-.28-.63-.28-.12,0-.18,.1-.18,.28Zm.88,1.66v-.23l-.6,.1c-.24,.04-.35,.15-.35,.32,0,.19,.14,.3,.38,.3,.31,0,.57-.21,.57-.5Z"/>
          <path class="cls-1" d="M220.45,108.49c0-.67,.44-1.14,1.08-1.14s1.07,.46,1.07,1.13-.44,1.14-1.07,1.14-1.07-.47-1.07-1.14Zm1.67,0c0-.45-.22-.74-.6-.74s-.59,.29-.59,.74,.23,.74,.59,.74,.6-.3,.6-.75Z"/>
          <path class="cls-1" d="M222.93,108.9h.46c.03,.24,.2,.37,.5,.37,.28,0,.45-.1,.45-.29,0-.14-.1-.22-.31-.26l-.43-.09c-.42-.09-.61-.29-.61-.61,0-.41,.31-.67,.84-.67s.85,.24,.91,.69h-.46c-.04-.21-.2-.33-.46-.33-.23,0-.38,.09-.38,.26,0,.13,.08,.21,.29,.25l.44,.09c.44,.1,.63,.29,.63,.61,0,.44-.35,.7-.93,.7s-.89-.25-.94-.73Z"/>
          <path class="cls-1" d="M225.26,109.96h.06c.15,0,.23-.08,.23-.24v-.16h-.3s0-.52,0-.52h.57v.66c0,.33-.17,.5-.51,.5h-.06v-.24Z"/>
          <path class="cls-1" d="M229.5,108.62h-1.59c.02,.4,.24,.62,.58,.62,.26,0,.42-.12,.5-.35l.47,.04c-.13,.46-.49,.7-.97,.7-.68,0-1.08-.49-1.08-1.15s.39-1.12,1.04-1.12,1.05,.43,1.05,1.15v.12Zm-1.59-.34h1.1c-.04-.35-.24-.55-.55-.55s-.52,.2-.55,.55Z"/>
          <path class="cls-1" d="M231.82,108.09v1.47h-.49v-1.37c0-.26-.12-.41-.37-.41-.27,0-.51,.18-.51,.6v1.17h-.49v-2.16h.47v.3c.15-.23,.38-.36,.68-.36,.45,0,.72,.28,.72,.74Z"/>
          <path class="cls-1" d="M233.02,108.96c0,.16,.05,.21,.2,.21h.24v.4h-.39c-.38,0-.54-.16-.54-.54v-1.26h-.31s0-.36,0-.36h.31s0-.66,0-.66h.49v.68h.44s0,.36,0,.36l-.44-.02v1.2Z"/>
          <path class="cls-1" d="M235.83,108.62h-1.59c.02,.4,.24,.62,.58,.62,.26,0,.42-.12,.5-.35l.47,.04c-.13,.46-.49,.7-.97,.7-.68,0-1.08-.49-1.08-1.15s.39-1.12,1.04-1.12,1.05,.43,1.05,1.15v.12Zm-1.59-.34h1.1c-.04-.35-.24-.55-.55-.55s-.52,.2-.55,.55Z"/>
          <path class="cls-1" d="M238.15,108.09v1.47h-.49v-1.37c0-.26-.12-.41-.37-.41-.27,0-.51,.18-.51,.6v1.17h-.49v-2.16h.47v.3c.15-.23,.38-.36,.68-.36,.45,0,.72,.28,.72,.74Z"/>
          <path class="cls-1" d="M240.65,106.59v2.98h-.43v-.3c-.15,.23-.38,.36-.67,.36-.56,0-.94-.48-.94-1.16s.39-1.11,.91-1.11c.28,0,.5,.1,.64,.29v-1.06h.49Zm-.46,1.88c0-.45-.23-.7-.55-.7s-.54,.25-.54,.7,.21,.73,.54,.73,.55-.28,.55-.73Z"/>
          <path class="cls-1" d="M243.2,108.62h-1.59c.02,.4,.24,.62,.58,.62,.26,0,.42-.12,.5-.35l.47,.04c-.13,.46-.49,.7-.97,.7-.68,0-1.08-.49-1.08-1.15s.39-1.12,1.04-1.12,1.05,.43,1.05,1.15v.12Zm-1.59-.34h1.1c-.04-.35-.24-.55-.55-.55s-.52,.2-.55,.55Z"/>
          <path class="cls-1" d="M245.52,108.09v1.47h-.49v-1.37c0-.26-.12-.41-.37-.41-.27,0-.51,.18-.51,.6v1.17h-.49v-2.16h.47v.3c.15-.23,.38-.36,.68-.36,.45,0,.72,.28,.72,.74Z"/>
          <path class="cls-1" d="M248.02,106.59v2.98h-.43v-.3c-.15,.23-.38,.36-.67,.36-.56,0-.94-.48-.94-1.16s.39-1.11,.91-1.11c.28,0,.5,.1,.64,.29v-1.06h.49Zm-.46,1.88c0-.45-.23-.7-.55-.7s-.54,.25-.54,.7,.21,.73,.54,.73,.55-.28,.55-.73Z"/>
          <path class="cls-1" d="M248.48,108.49c0-.67,.44-1.14,1.08-1.14s1.07,.46,1.07,1.13-.44,1.14-1.07,1.14-1.07-.47-1.07-1.14Zm1.67,0c0-.45-.22-.74-.6-.74s-.59,.29-.59,.74,.23,.74,.59,.74,.6-.3,.6-.75Z"/>
          <path class="cls-1" d="M253.36,107.35v.46s-.09,0-.13,0c-.33,0-.57,.21-.58,.64v1.11h-.49v-2.16h.47v.39c.1-.29,.3-.46,.59-.46,.05,0,.09,0,.14,.01Z"/>
          <path class="cls-1" d="M255.69,108.62h-1.59c.02,.4,.24,.62,.58,.62,.26,0,.42-.12,.5-.35l.47,.04c-.13,.46-.49,.7-.97,.7-.68,0-1.08-.49-1.08-1.15s.39-1.12,1.04-1.12,1.05,.43,1.05,1.15v.12Zm-1.59-.34h1.1c-.04-.35-.24-.55-.55-.55s-.52,.2-.55,.55Z"/>
          <path class="cls-1" d="M257.51,109.56c-.02-.08-.04-.17-.05-.25-.15,.19-.4,.31-.71,.31-.45,0-.74-.25-.74-.64,0-.35,.22-.58,.69-.66l.67-.11s.04,0,.06-.02v-.19c0-.19-.14-.28-.43-.28s-.41,.09-.44,.33h-.46c.04-.48,.34-.7,.91-.7s.89,.24,.89,.74v.97c0,.18,.02,.3,.09,.5h-.49Zm-.07-.81v-.23l-.6,.1c-.24,.04-.35,.15-.35,.32,0,.19,.14,.3,.38,.3,.31,0,.57-.21,.57-.5Z"/>
          <path class="cls-1" d="M258.5,106.59h.49v2.98h-.49v-2.98Z"/>
          <path class="cls-1" d="M262.61,108.1v1.46h-.49v-1.4c0-.22-.11-.38-.33-.38-.24,0-.46,.18-.46,.61v1.16h-.49v-1.4c0-.22-.11-.38-.33-.38-.24,0-.45,.19-.45,.62v1.15h-.49v-2.16h.47v.3c.13-.23,.34-.36,.62-.36,.3,0,.51,.14,.61,.38,.14-.26,.36-.38,.66-.38,.43,0,.68,.28,.68,.75Z"/>
          <path class="cls-1" d="M265.15,108.62h-1.59c.02,.4,.24,.62,.58,.62,.26,0,.42-.12,.5-.35l.47,.04c-.13,.46-.49,.7-.97,.7-.68,0-1.08-.49-1.08-1.15s.39-1.12,1.04-1.12,1.05,.43,1.05,1.15v.12Zm-1.59-.34h1.1c-.04-.35-.24-.55-.55-.55s-.52,.2-.55,.55Z"/>
          <path class="cls-1" d="M267.47,108.09v1.47h-.49v-1.37c0-.26-.12-.41-.37-.41-.27,0-.51,.18-.51,.6v1.17h-.49v-2.16h.47v.3c.15-.23,.38-.36,.68-.36,.45,0,.72,.28,.72,.74Z"/>
          <path class="cls-1" d="M268.68,108.96c0,.16,.05,.21,.2,.21h.24v.4h-.39c-.38,0-.54-.16-.54-.54v-1.26h-.31s0-.36,0-.36h.31s0-.66,0-.66h.49v.68h.44s0,.36,0,.36l-.44-.02v1.2Z"/>
          <path class="cls-1" d="M271.48,108.62h-1.59c.02,.4,.24,.62,.58,.62,.26,0,.42-.12,.5-.35l.47,.04c-.13,.46-.49,.7-.97,.7-.68,0-1.08-.49-1.08-1.15s.39-1.12,1.04-1.12,1.05,.43,1.05,1.15v.12Zm-1.59-.34h1.1c-.04-.35-.24-.55-.55-.55s-.52,.2-.55,.55Z"/>
          <path class="cls-1" d="M100.93,114.57c-.02-.08-.04-.17-.05-.25-.15,.19-.4,.31-.71,.31-.45,0-.74-.25-.74-.64,0-.35,.22-.58,.69-.66l.67-.11s.04,0,.06-.02v-.19c0-.19-.14-.28-.43-.28s-.41,.09-.44,.33h-.46c.04-.48,.34-.7,.91-.7s.89,.24,.89,.74v.97c0,.18,.02,.3,.09,.5h-.49Zm-.07-.81v-.23l-.6,.1c-.24,.04-.35,.15-.35,.32,0,.19,.14,.3,.38,.3,.31,0,.57-.21,.57-.5Z"/>
          <path class="cls-1" d="M104.92,111.6v2.98h-.43v-.3c-.15,.23-.38,.36-.67,.36-.56,0-.94-.48-.94-1.16s.39-1.11,.91-1.11c.28,0,.5,.1,.64,.29v-1.06h.49Zm-.46,1.88c0-.45-.23-.7-.55-.7s-.54,.25-.54,.7,.21,.73,.54,.73,.55-.28,.55-.73Z"/>
          <path class="cls-1" d="M105.5,111.6h.49v.48h-.49v-.48Zm0,.82h.49v2.16h-.49v-2.16Z"/>
          <path class="cls-1" d="M108.44,113.1v1.47h-.49v-1.37c0-.26-.12-.41-.37-.41-.27,0-.51,.18-.51,.6v1.17h-.49v-2.16h.47v.3c.15-.23,.38-.36,.68-.36,.45,0,.72,.28,.72,.74Z"/>
          <path class="cls-1" d="M110.38,114.57c-.02-.08-.04-.17-.05-.25-.15,.19-.4,.31-.71,.31-.45,0-.74-.25-.74-.64,0-.35,.22-.58,.69-.66l.67-.11s.04,0,.06-.02v-.19c0-.19-.14-.28-.43-.28s-.41,.09-.44,.33h-.46c.04-.48,.34-.7,.91-.7s.89,.24,.89,.74v.97c0,.18,.02,.3,.09,.5h-.49Zm-.75-2.43h-.46l.5-.63h.48l.5,.63h-.46l-.27-.38-.27,.38Zm.68,1.62v-.23l-.6,.1c-.24,.04-.35,.15-.35,.32,0,.19,.14,.3,.38,.3,.31,0,.57-.21,.57-.5Z"/>
          <path class="cls-1" d="M114.4,113.12v1.46h-.49v-1.4c0-.22-.11-.38-.33-.38-.24,0-.46,.18-.46,.61v1.16h-.49v-1.4c0-.22-.11-.38-.33-.38-.24,0-.45,.19-.45,.62v1.15h-.49v-2.16h.47v.3c.13-.23,.34-.36,.62-.36,.3,0,.51,.14,.61,.38,.14-.26,.36-.38,.66-.38,.43,0,.68,.28,.68,.75Z"/>
          <path class="cls-1" d="M114.98,111.6h.49v.48h-.49v-.48Zm0,.82h.49v2.16h-.49v-2.16Z"/>
          <path class="cls-1" d="M115.93,113.51c0-.71,.4-1.15,1.03-1.15,.53,0,.88,.28,.96,.79h-.47c-.06-.26-.22-.39-.48-.39-.37,0-.56,.27-.56,.74s.2,.74,.55,.74c.26,0,.42-.15,.48-.42h.47c-.08,.51-.42,.81-.97,.81-.62,0-1.02-.42-1.02-1.13Z"/>
          <path class="cls-1" d="M119.72,114.57c-.02-.08-.04-.17-.05-.25-.15,.19-.4,.31-.71,.31-.45,0-.74-.25-.74-.64,0-.35,.22-.58,.69-.66l.67-.11s.04,0,.06-.02v-.19c0-.19-.14-.28-.43-.28s-.41,.09-.44,.33h-.46c.04-.48,.34-.7,.91-.7s.89,.24,.89,.74v.97c0,.18,.02,.3,.09,.5h-.49Zm-.07-.81v-.23l-.6,.1c-.24,.04-.35,.15-.35,.32,0,.19,.14,.3,.38,.3,.31,0,.57-.21,.57-.5Z"/>
          <path class="cls-1" d="M123.71,111.6v2.98h-.43v-.3c-.15,.23-.38,.36-.67,.36-.56,0-.94-.48-.94-1.16s.39-1.11,.91-1.11c.28,0,.5,.1,.64,.29v-1.06h.49Zm-.46,1.88c0-.45-.23-.7-.55-.7s-.54,.25-.54,.7,.21,.73,.54,.73,.55-.28,.55-.73Z"/>
          <path class="cls-1" d="M126.26,113.63h-1.59c.02,.4,.24,.62,.58,.62,.26,0,.42-.12,.5-.35l.47,.04c-.13,.46-.49,.7-.97,.7-.68,0-1.08-.49-1.08-1.15s.39-1.12,1.04-1.12,1.05,.43,1.05,1.15v.12Zm-1.59-.34h1.1c-.04-.35-.24-.55-.55-.55s-.52,.2-.55,.55Z"/>
          <path class="cls-1" d="M127.68,113.51c0-.71,.4-1.15,1.03-1.15,.53,0,.88,.28,.96,.79h-.47c-.06-.26-.22-.39-.48-.39-.37,0-.56,.27-.56,.74s.2,.74,.55,.74c.26,0,.42-.15,.48-.42h.47c-.08,.51-.42,.81-.97,.81-.62,0-1.02-.42-1.02-1.13Z"/>
          <path class="cls-1" d="M131.47,114.57c-.02-.08-.04-.17-.05-.25-.15,.19-.4,.31-.71,.31-.45,0-.74-.25-.74-.64,0-.35,.22-.58,.69-.66l.67-.11s.04,0,.06-.02v-.19c0-.19-.14-.28-.43-.28s-.41,.09-.44,.33h-.46c.04-.48,.34-.7,.91-.7s.89,.24,.89,.74v.97c0,.18,.02,.3,.09,.5h-.49Zm-.07-.81v-.23l-.6,.1c-.24,.04-.35,.15-.35,.32,0,.19,.14,.3,.38,.3,.31,0,.57-.21,.57-.5Z"/>
          <path class="cls-1" d="M134.37,111.6v2.98h-.43v-.3c-.15,.23-.38,.36-.67,.36-.56,0-.94-.48-.94-1.16s.39-1.11,.91-1.11c.28,0,.5,.1,.64,.29v-1.06h.49Zm-.46,1.88c0-.45-.23-.7-.55-.7s-.54,.25-.54,.7,.21,.73,.54,.73,.55-.28,.55-.73Z"/>
          <path class="cls-1" d="M136.31,114.57c-.02-.08-.04-.17-.05-.25-.15,.19-.4,.31-.71,.31-.45,0-.74-.25-.74-.64,0-.35,.22-.58,.69-.66l.67-.11s.04,0,.06-.02v-.19c0-.19-.14-.28-.43-.28s-.41,.09-.44,.33h-.46c.04-.48,.34-.7,.91-.7s.89,.24,.89,.74v.97c0,.18,.02,.3,.09,.5h-.49Zm-.07-.81v-.23l-.6,.1c-.24,.04-.35,.15-.35,.32,0,.19,.14,.3,.38,.3,.31,0,.57-.21,.57-.5Z"/>
          <path class="cls-1" d="M140.25,113.1v1.47h-.49v-1.37c0-.26-.12-.41-.37-.41-.27,0-.51,.18-.51,.6v1.17h-.49v-2.16h.47v.3c.15-.23,.38-.36,.68-.36,.45,0,.72,.28,.72,.74Z"/>
          <path class="cls-1" d="M142.8,113.63h-1.59c.02,.4,.24,.62,.58,.62,.26,0,.42-.12,.5-.35l.47,.04c-.13,.46-.49,.7-.97,.7-.68,0-1.08-.49-1.08-1.15s.39-1.12,1.04-1.12,1.05,.43,1.05,1.15v.12Zm-1.59-.34h1.1c-.04-.35-.24-.55-.55-.55s-.52,.2-.55,.55Z"/>
          <path class="cls-1" d="M145.18,112.42v2.14c0,.63-.39,.92-1.02,.92-.56,0-.9-.23-.95-.68h.46c.05,.22,.21,.31,.49,.31,.39,0,.54-.17,.54-.53v-.28c-.14,.19-.36,.3-.63,.3-.56,0-.93-.47-.93-1.14s.39-1.09,.93-1.09c.3,0,.53,.13,.67,.36v-.3h.45Zm-.48,1.04c0-.44-.23-.69-.55-.69s-.54,.25-.54,.69,.21,.72,.54,.72,.55-.27,.55-.71Z"/>
          <path class="cls-1" d="M145.64,113.5c0-.67,.44-1.14,1.08-1.14s1.07,.46,1.07,1.13-.44,1.14-1.07,1.14-1.07-.47-1.07-1.14Zm1.67,0c0-.45-.22-.74-.6-.74s-.59,.29-.59,.74,.23,.74,.59,.74,.6-.3,.6-.75Zm-.6-1.94h.63l-.54,.62h-.37l.28-.62Z"/>
          <path class="cls-1" d="M148.12,113.51c0-.71,.4-1.15,1.03-1.15,.53,0,.88,.28,.96,.79h-.47c-.06-.26-.22-.39-.48-.39-.37,0-.56,.27-.56,.74s.2,.74,.55,.74c.26,0,.42-.15,.48-.42h.47c-.08,.51-.42,.81-.97,.81-.62,0-1.02-.42-1.02-1.13Z"/>
          <path class="cls-1" d="M150.55,111.6h.49v.48h-.49v-.48Zm0,.82h.49v2.16h-.49v-2.16Z"/>
          <path class="cls-1" d="M151.5,113.5c0-.67,.44-1.14,1.08-1.14s1.07,.46,1.07,1.13-.44,1.14-1.07,1.14-1.07-.47-1.07-1.14Zm1.67,0c0-.45-.22-.74-.6-.74s-.59,.29-.59,.74,.23,.74,.59,.74,.6-.3,.6-.75Z"/>
          <path class="cls-1" d="M154.13,114.97h.06c.15,0,.23-.08,.23-.24v-.16h-.3s0-.52,0-.52h.57v.66c0,.33-.17,.5-.51,.5h-.06v-.24Z"/>
          <path class="cls-1" d="M158.43,113.47c0,.68-.37,1.17-.94,1.17-.26,0-.47-.1-.61-.29v1.08h-.49v-3.01h.43v.31c.15-.23,.39-.36,.7-.36,.52,0,.91,.42,.91,1.1Zm-.48,0c0-.44-.21-.69-.54-.69s-.55,.25-.55,.7,.23,.73,.55,.73,.54-.29,.54-.74Z"/>
          <path class="cls-1" d="M160.25,114.57c-.02-.08-.04-.17-.05-.25-.15,.19-.4,.31-.71,.31-.45,0-.74-.25-.74-.64,0-.35,.22-.58,.69-.66l.67-.11s.04,0,.06-.02v-.19c0-.19-.14-.28-.43-.28s-.41,.09-.44,.33h-.46c.04-.48,.34-.7,.91-.7s.89,.24,.89,.74v.97c0,.18,.02,.3,.09,.5h-.49Zm-.07-.81v-.23l-.6,.1c-.24,.04-.35,.15-.35,.32,0,.19,.14,.3,.38,.3,.31,0,.57-.21,.57-.5Z"/>
          <path class="cls-1" d="M162.43,112.36v.46s-.09,0-.13,0c-.33,0-.57,.21-.58,.64v1.11h-.49v-2.16h.47v.39c.1-.29,.3-.46,.59-.46,.05,0,.09,0,.14,.01Z"/>
          <path class="cls-1" d="M164.12,114.57c-.02-.08-.04-.17-.05-.25-.15,.19-.4,.31-.71,.31-.45,0-.74-.25-.74-.64,0-.35,.22-.58,.69-.66l.67-.11s.04,0,.06-.02v-.19c0-.19-.14-.28-.43-.28s-.41,.09-.44,.33h-.46c.04-.48,.34-.7,.91-.7s.89,.24,.89,.74v.97c0,.18,.02,.3,.09,.5h-.49Zm-.07-.81v-.23l-.6,.1c-.24,.04-.35,.15-.35,.32,0,.19,.14,.3,.38,.3,.31,0,.57-.21,.57-.5Z"/>
          <path class="cls-1" d="M166.07,113.5c0-.67,.44-1.14,1.08-1.14s1.07,.46,1.07,1.13-.44,1.14-1.07,1.14-1.07-.47-1.07-1.14Zm1.67,0c0-.45-.22-.74-.6-.74s-.59,.29-.59,.74,.23,.74,.59,.74,.6-.3,.6-.75Z"/>
          <path class="cls-1" d="M169.31,112.26v.18h.45s0,.36,0,.36l-.45-.02v1.8h-.49v-1.8h-.33s0-.36,0-.36h.33s0-.15,0-.15c0-.45,.22-.67,.67-.67h.27v.4h-.19c-.19,0-.26,.07-.26,.26Z"/>
          <path class="cls-1" d="M172.07,113.63h-1.59c.02,.4,.24,.62,.58,.62,.26,0,.42-.12,.5-.35l.47,.04c-.13,.46-.49,.7-.97,.7-.68,0-1.08-.49-1.08-1.15s.39-1.12,1.04-1.12,1.05,.43,1.05,1.15v.12Zm-1.59-.34h1.1c-.04-.35-.24-.55-.55-.55s-.52,.2-.55,.55Z"/>
          <path class="cls-1" d="M173.73,112.36v.46s-.09,0-.13,0c-.33,0-.57,.21-.58,.64v1.11h-.49v-2.16h.47v.39c.1-.29,.3-.46,.59-.46,.05,0,.09,0,.14,.01Z"/>
          <path class="cls-1" d="M176.06,113.63h-1.59c.02,.4,.24,.62,.58,.62,.26,0,.42-.12,.5-.35l.47,.04c-.13,.46-.49,.7-.97,.7-.68,0-1.08-.49-1.08-1.15s.39-1.12,1.04-1.12,1.05,.43,1.05,1.15v.12Zm-1.59-.34h1.1c-.04-.35-.24-.55-.55-.55s-.52,.2-.55,.55Z"/>
          <path class="cls-1" d="M176.39,113.51c0-.71,.4-1.15,1.03-1.15,.53,0,.88,.28,.96,.79h-.47c-.06-.26-.22-.39-.48-.39-.37,0-.56,.27-.56,.74s.2,.74,.55,.74c.26,0,.42-.15,.48-.42h.47c-.08,.51-.42,.81-.97,.81-.62,0-1.02-.42-1.02-1.13Z"/>
          <path class="cls-1" d="M180.79,113.63h-1.59c.02,.4,.24,.62,.58,.62,.26,0,.42-.12,.5-.35l.47,.04c-.13,.46-.49,.7-.97,.7-.68,0-1.08-.49-1.08-1.15s.39-1.12,1.04-1.12,1.05,.43,1.05,1.15v.12Zm-1.59-.34h1.1c-.04-.35-.24-.55-.55-.55s-.52,.2-.55,.55Z"/>
          <path class="cls-1" d="M182.44,112.36v.46s-.09,0-.13,0c-.33,0-.57,.21-.58,.64v1.11h-.49v-2.16h.47v.39c.1-.29,.3-.46,.59-.46,.05,0,.09,0,.14,.01Z"/>
          <path class="cls-1" d="M185.25,114.57c-.02-.08-.04-.17-.05-.25-.15,.19-.4,.31-.71,.31-.45,0-.74-.25-.74-.64,0-.35,.22-.58,.69-.66l.67-.11s.04,0,.06-.02v-.19c0-.19-.14-.28-.43-.28s-.41,.09-.44,.33h-.46c.04-.48,.34-.7,.91-.7s.89,.24,.89,.74v.97c0,.18,.02,.3,.09,.5h-.49Zm-.07-.81v-.23l-.6,.1c-.24,.04-.35,.15-.35,.32,0,.19,.14,.3,.38,.3,.31,0,.57-.21,.57-.5Z"/>
          <path class="cls-1" d="M190.35,113.12v1.46h-.49v-1.4c0-.22-.11-.38-.33-.38-.24,0-.46,.18-.46,.61v1.16h-.49v-1.4c0-.22-.11-.38-.33-.38-.24,0-.45,.19-.45,.62v1.15h-.49v-2.16h.47v.3c.13-.23,.34-.36,.62-.36,.3,0,.51,.14,.61,.38,.14-.26,.36-.38,.66-.38,.43,0,.68,.28,.68,.75Z"/>
          <path class="cls-1" d="M192.9,113.63h-1.59c.02,.4,.24,.62,.58,.62,.26,0,.42-.12,.5-.35l.47,.04c-.13,.46-.49,.7-.97,.7-.68,0-1.08-.49-1.08-1.15s.39-1.12,1.04-1.12,1.05,.43,1.05,1.15v.12Zm-1.59-.34h1.1c-.04-.35-.24-.55-.55-.55s-.52,.2-.55,.55Z"/>
          <path class="cls-1" d="M193.36,111.6h.49v2.98h-.49v-2.98Z"/>
          <path class="cls-1" d="M196.29,113.1v1.47h-.49v-1.37c0-.26-.12-.41-.37-.41-.27,0-.51,.18-.51,.6v1.17h-.49v-2.98h.49v1.1c.15-.22,.37-.33,.66-.33,.45,0,.72,.28,.72,.74Z"/>
          <path class="cls-1" d="M196.76,113.5c0-.67,.44-1.14,1.08-1.14s1.07,.46,1.07,1.13-.44,1.14-1.07,1.14-1.07-.47-1.07-1.14Zm1.67,0c0-.45-.22-.74-.6-.74s-.59,.29-.59,.74,.23,.74,.59,.74,.6-.3,.6-.75Z"/>
          <path class="cls-1" d="M200.55,112.36v.46s-.09,0-.13,0c-.33,0-.57,.21-.58,.64v1.11h-.49v-2.16h.47v.39c.1-.29,.3-.46,.59-.46,.05,0,.09,0,.14,.01Z"/>
          <path class="cls-1" d="M201.88,113.91h.46c.03,.24,.2,.37,.5,.37,.28,0,.45-.1,.45-.29,0-.14-.1-.22-.31-.26l-.43-.09c-.42-.09-.61-.29-.61-.61,0-.41,.31-.67,.84-.67s.85,.24,.91,.69h-.46c-.04-.21-.2-.33-.46-.33-.23,0-.38,.09-.38,.26,0,.13,.08,.21,.29,.25l.44,.09c.44,.1,.63,.29,.63,.61,0,.44-.35,.7-.93,.7s-.89-.26-.94-.73Z"/>
          <path class="cls-1" d="M204.06,113.5c0-.67,.44-1.14,1.08-1.14s1.07,.46,1.07,1.13-.44,1.14-1.07,1.14-1.07-.47-1.07-1.14Zm1.67,0c0-.45-.22-.74-.6-.74s-.59,.29-.59,.74,.23,.74,.59,.74,.6-.3,.6-.75Z"/>
          <path class="cls-1" d="M206.67,111.6h.49v2.98h-.49v-2.98Z"/>
          <path class="cls-1" d="M209.6,112.42v2.16h-.47v-.3c-.16,.23-.38,.35-.68,.35-.45,0-.72-.28-.72-.74v-1.47h.49v1.37c0,.26,.12,.41,.37,.41,.27,0,.51-.18,.51-.6v-1.17h.49Z"/>
          <path class="cls-1" d="M211.58,113.83h.47c-.08,.48-.38,.77-.86,.81l-.14,.22h.07c.25,0,.42,.13,.42,.37,0,.27-.23,.43-.58,.43h-.17v-.25h.13c.18,0,.24-.06,.24-.14,0-.07-.04-.12-.15-.12h-.13l-.13-.2,.19-.3c-.53-.07-.86-.47-.86-1.12,0-.71,.4-1.15,1.03-1.15,.53,0,.88,.28,.96,.79h-.47c-.06-.26-.22-.39-.48-.39-.37,0-.56,.27-.56,.74s.2,.74,.55,.74c.26,0,.42-.15,.48-.42Z"/>
          <path class="cls-1" d="M213.85,114.57c-.02-.08-.04-.17-.05-.25-.15,.19-.4,.31-.71,.31-.45,0-.74-.25-.74-.64,0-.35,.22-.58,.69-.66l.67-.11s.04,0,.06-.02v-.19c0-.19-.14-.28-.43-.28s-.41,.09-.44,.33h-.46c.04-.48,.34-.7,.91-.7s.89,.24,.89,.74v.97c0,.18,.02,.3,.09,.5h-.49Zm-.95-2.47h-.37c0-.5,.22-.69,.51-.69,.34,0,.42,.28,.63,.28,.12,0,.18-.09,.18-.28h.37c0,.5-.21,.69-.51,.69-.34,0-.42-.28-.63-.28-.12,0-.18,.1-.18,.28Zm.88,1.66v-.23l-.6,.1c-.24,.04-.35,.15-.35,.32,0,.19,.14,.3,.38,.3,.31,0,.57-.21,.57-.5Z"/>
          <path class="cls-1" d="M214.72,113.5c0-.67,.44-1.14,1.08-1.14s1.07,.46,1.07,1.13-.44,1.14-1.07,1.14-1.07-.47-1.07-1.14Zm1.67,0c0-.45-.22-.74-.6-.74s-.59,.29-.59,.74,.23,.74,.59,.74,.6-.3,.6-.75Z"/>
          <path class="cls-1" d="M219.77,114.57c-.02-.08-.04-.17-.05-.25-.15,.19-.4,.31-.71,.31-.45,0-.74-.25-.74-.64,0-.35,.22-.58,.69-.66l.67-.11s.04,0,.06-.02v-.19c0-.19-.14-.28-.43-.28s-.41,.09-.44,.33h-.46c.04-.48,.34-.7,.91-.7s.89,.24,.89,.74v.97c0,.18,.02,.3,.09,.5h-.49Zm-.07-.81v-.23l-.6,.1c-.24,.04-.35,.15-.35,.32,0,.19,.14,.3,.38,.3,.31,0,.57-.21,.57-.5Z"/>
          <path class="cls-1" d="M222.61,112.42v2.16h-.47v-.3c-.16,.23-.38,.35-.68,.35-.45,0-.72-.28-.72-.74v-1.47h.49v1.37c0,.26,.12,.41,.37,.41,.27,0,.51-.18,.51-.6v-1.17h.49Z"/>
          <path class="cls-1" d="M225.11,111.6v2.98h-.43v-.3c-.15,.23-.38,.36-.67,.36-.56,0-.94-.48-.94-1.16s.39-1.11,.91-1.11c.28,0,.5,.1,.64,.29v-1.06h.49Zm-.46,1.88c0-.45-.23-.7-.55-.7s-.54,.25-.54,.7,.21,.73,.54,.73,.55-.28,.55-.73Z"/>
          <path class="cls-1" d="M225.69,111.6h.49v.48h-.49v-.48Zm0,.82h.49v2.16h-.49v-2.16Z"/>
          <path class="cls-1" d="M226.65,113.5c0-.67,.44-1.14,1.08-1.14s1.07,.46,1.07,1.13-.44,1.14-1.07,1.14-1.07-.47-1.07-1.14Zm1.67,0c0-.45-.22-.74-.6-.74s-.59,.29-.59,.74,.23,.74,.59,.74,.6-.3,.6-.75Z"/>
          <path class="cls-1" d="M230.99,112.42l-.75,2.16h-.49l-.77-2.16h.52l.31,.94,.2,.78,.19-.78,.3-.94h.49Z"/>
          <path class="cls-1" d="M231.36,111.6h.49v.48h-.49v-.48Zm0,.82h.49v2.16h-.49v-2.16Z"/>
          <path class="cls-1" d="M232.31,113.91h.46c.03,.24,.2,.37,.5,.37,.28,0,.45-.1,.45-.29,0-.14-.1-.22-.31-.26l-.43-.09c-.42-.09-.61-.29-.61-.61,0-.41,.31-.67,.84-.67s.85,.24,.91,.69h-.46c-.04-.21-.2-.33-.46-.33-.23,0-.38,.09-.38,.26,0,.13,.08,.21,.29,.25l.44,.09c.44,.1,.63,.29,.63,.61,0,.44-.35,.7-.93,.7s-.89-.26-.94-.73Z"/>
          <path class="cls-1" d="M236.48,112.42v2.16h-.47v-.3c-.16,.23-.38,.35-.68,.35-.45,0-.72-.28-.72-.74v-1.47h.49v1.37c0,.26,.12,.41,.37,.41,.27,0,.51-.18,.51-.6v-1.17h.49Z"/>
          <path class="cls-1" d="M238.43,114.57c-.02-.08-.04-.17-.05-.25-.15,.19-.4,.31-.71,.31-.45,0-.74-.25-.74-.64,0-.35,.22-.58,.69-.66l.67-.11s.04,0,.06-.02v-.19c0-.19-.14-.28-.43-.28s-.41,.09-.44,.33h-.46c.04-.48,.34-.7,.91-.7s.89,.24,.89,.74v.97c0,.18,.02,.3,.09,.5h-.49Zm-.07-.81v-.23l-.6,.1c-.24,.04-.35,.15-.35,.32,0,.19,.14,.3,.38,.3,.31,0,.57-.21,.57-.5Z"/>
          <path class="cls-1" d="M239.41,111.6h.49v2.98h-.49v-2.98Z"/>
          <path class="cls-1" d="M243.61,113.47c0,.68-.37,1.17-.94,1.17-.25,0-.47-.1-.61-.29v1.08h-.49v-3.01h.43v.31c.15-.23,.39-.36,.7-.36,.52,0,.91,.42,.91,1.1Zm-.48,0c0-.44-.21-.69-.54-.69s-.55,.25-.55,.7,.23,.73,.55,.73,.54-.29,.54-.74Z"/>
          <path class="cls-1" d="M245.43,114.57c-.02-.08-.04-.17-.05-.25-.15,.19-.4,.31-.71,.31-.45,0-.74-.25-.74-.64,0-.35,.22-.58,.69-.66l.67-.11s.04,0,.06-.02v-.19c0-.19-.14-.28-.43-.28s-.41,.09-.44,.33h-.46c.04-.48,.34-.7,.91-.7s.89,.24,.89,.74v.97c0,.18,.02,.3,.09,.5h-.49Zm-.07-.81v-.23l-.6,.1c-.24,.04-.35,.15-.35,.32,0,.19,.14,.3,.38,.3,.31,0,.57-.21,.57-.5Z"/>
          <path class="cls-1" d="M247.6,112.36v.46s-.09,0-.13,0c-.33,0-.57,.21-.58,.64v1.11h-.49v-2.16h.47v.39c.1-.29,.3-.46,.59-.46,.05,0,.09,0,.14,.01Z"/>
          <path class="cls-1" d="M249.3,114.57c-.02-.08-.04-.17-.05-.25-.15,.19-.4,.31-.71,.31-.45,0-.74-.25-.74-.64,0-.35,.22-.58,.69-.66l.67-.11s.04,0,.06-.02v-.19c0-.19-.14-.28-.43-.28s-.41,.09-.44,.33h-.46c.04-.48,.34-.7,.91-.7s.89,.24,.89,.74v.97c0,.18,.02,.3,.09,.5h-.49Zm-.07-.81v-.23l-.6,.1c-.24,.04-.35,.15-.35,.32,0,.19,.14,.3,.38,.3,.31,0,.57-.21,.57-.5Z"/>
          <path class="cls-1" d="M251.25,113.51c0-.71,.4-1.15,1.03-1.15,.53,0,.88,.28,.96,.79h-.47c-.06-.26-.22-.39-.48-.39-.37,0-.56,.27-.56,.74s.2,.74,.55,.74c.26,0,.42-.15,.48-.42h.47c-.08,.51-.42,.81-.97,.81-.62,0-1.02-.42-1.02-1.13Z"/>
          <path class="cls-1" d="M255.03,114.57c-.02-.08-.04-.17-.05-.25-.15,.19-.4,.31-.71,.31-.45,0-.74-.25-.74-.64,0-.35,.22-.58,.69-.66l.67-.11s.04,0,.06-.02v-.19c0-.19-.14-.28-.43-.28s-.41,.09-.44,.33h-.46c.04-.48,.34-.7,.91-.7s.89,.24,.89,.74v.97c0,.18,.02,.3,.09,.5h-.49Zm-.07-.81v-.23l-.6,.1c-.24,.04-.35,.15-.35,.32,0,.19,.14,.3,.38,.3,.31,0,.57-.21,.57-.5Z"/>
          <path class="cls-1" d="M257.93,111.6v2.98h-.43v-.3c-.15,.23-.38,.36-.67,.36-.56,0-.94-.48-.94-1.16s.39-1.11,.91-1.11c.28,0,.5,.1,.64,.29v-1.06h.49Zm-.46,1.88c0-.45-.23-.7-.55-.7s-.54,.25-.54,.7,.21,.73,.54,.73,.55-.28,.55-.73Z"/>
          <path class="cls-1" d="M259.88,114.57c-.02-.08-.04-.17-.05-.25-.15,.19-.4,.31-.71,.31-.45,0-.74-.25-.74-.64,0-.35,.22-.58,.69-.66l.67-.11s.04,0,.06-.02v-.19c0-.19-.14-.28-.43-.28s-.41,.09-.44,.33h-.46c.04-.48,.34-.7,.91-.7s.89,.24,.89,.74v.97c0,.18,.02,.3,.09,.5h-.49Zm-.07-.81v-.23l-.6,.1c-.24,.04-.35,.15-.35,.32,0,.19,.14,.3,.38,.3,.31,0,.57-.21,.57-.5Z"/>
          <path class="cls-1" d="M102.61,118.13v1.46h-.49v-1.4c0-.22-.11-.38-.33-.38-.24,0-.46,.18-.46,.61v1.16h-.49v-1.4c0-.22-.11-.38-.33-.38-.24,0-.45,.19-.45,.62v1.15h-.49v-2.16h.47v.3c.13-.23,.34-.36,.62-.36,.3,0,.51,.14,.61,.38,.14-.26,.36-.38,.66-.38,.43,0,.68,.28,.68,.75Z"/>
          <path class="cls-1" d="M103.06,118.51c0-.67,.44-1.14,1.08-1.14s1.07,.46,1.07,1.13-.44,1.14-1.07,1.14-1.07-.47-1.07-1.14Zm1.67,0c0-.45-.22-.74-.6-.74s-.59,.29-.59,.74,.23,.74,.59,.74,.6-.3,.6-.75Z"/>
          <path class="cls-1" d="M108.7,118.13v1.46h-.49v-1.4c0-.22-.11-.38-.33-.38-.24,0-.46,.18-.46,.61v1.16h-.49v-1.4c0-.22-.11-.38-.33-.38-.24,0-.45,.19-.45,.62v1.15h-.49v-2.16h.47v.3c.13-.23,.34-.36,.62-.36,.3,0,.51,.14,.61,.38,.14-.26,.36-.38,.66-.38,.43,0,.68,.28,.68,.75Z"/>
          <path class="cls-1" d="M111.25,118.64h-1.59c.02,.4,.24,.62,.58,.62,.26,0,.42-.12,.5-.35l.47,.04c-.13,.46-.49,.7-.97,.7-.68,0-1.08-.49-1.08-1.15s.39-1.12,1.04-1.12,1.05,.43,1.05,1.15v.12Zm-1.59-.34h1.1c-.04-.35-.24-.55-.55-.55s-.52,.2-.55,.55Z"/>
          <path class="cls-1" d="M113.57,118.11v1.47h-.49v-1.37c0-.26-.12-.41-.37-.41-.27,0-.51,.18-.51,.6v1.17h-.49v-2.16h.47v.3c.15-.23,.38-.36,.68-.36,.45,0,.72,.28,.72,.74Z"/>
          <path class="cls-1" d="M114.77,118.98c0,.16,.05,.21,.2,.21h.24v.4h-.39c-.38,0-.54-.16-.54-.54v-1.26h-.31s0-.36,0-.36h.31s0-.66,0-.66h.49v.68h.44s0,.36,0,.36l-.44-.02v1.2Z"/>
          <path class="cls-1" d="M115.49,118.51c0-.67,.44-1.14,1.08-1.14s1.07,.46,1.07,1.13-.44,1.14-1.07,1.14-1.07-.47-1.07-1.14Zm1.67,0c0-.45-.22-.74-.6-.74s-.59,.29-.59,.74,.23,.74,.59,.74,.6-.3,.6-.75Z"/>
          <path class="cls-1" d="M118.12,119.98h.06c.15,0,.23-.08,.23-.24v-.16h-.3s0-.52,0-.52h.57v.66c0,.33-.17,.5-.51,.5h-.06v-.24Z"/>
          <path class="cls-1" d="M122.3,116.61v2.98h-.43v-.3c-.15,.23-.38,.36-.67,.36-.56,0-.94-.48-.94-1.16s.39-1.11,.91-1.11c.28,0,.5,.1,.64,.29v-1.06h.49Zm-.46,1.88c0-.45-.23-.7-.55-.7s-.54,.25-.54,.7,.21,.73,.54,.73,.55-.28,.55-.73Z"/>
          <path class="cls-1" d="M124.85,118.64h-1.59c.02,.4,.24,.62,.58,.62,.26,0,.42-.12,.5-.35l.47,.04c-.13,.46-.49,.7-.97,.7-.68,0-1.08-.49-1.08-1.15s.39-1.12,1.04-1.12,1.05,.43,1.05,1.15v.12Zm-1.59-.34h1.1c-.04-.35-.24-.55-.55-.55s-.52,.2-.55,.55Z"/>
          <path class="cls-1" d="M127.03,117.27v.18h.45s0,.36,0,.36l-.45-.02v1.8h-.49v-1.8h-.33s0-.36,0-.36h.33s0-.15,0-.15c0-.45,.22-.67,.67-.67h.27v.4h-.19c-.19,0-.26,.07-.26,.26Z"/>
          <path class="cls-1" d="M127.7,118.51c0-.67,.44-1.14,1.08-1.14s1.07,.46,1.07,1.13-.44,1.14-1.07,1.14-1.07-.47-1.07-1.14Zm1.67,0c0-.45-.22-.74-.6-.74s-.59,.29-.59,.74,.23,.74,.59,.74,.6-.3,.6-.75Z"/>
          <path class="cls-1" d="M131.5,117.37v.46s-.09,0-.13,0c-.33,0-.57,.21-.58,.64v1.11h-.49v-2.16h.47v.39c.1-.29,.3-.46,.59-.46,.05,0,.09,0,.14,.01Z"/>
          <path class="cls-1" d="M134.9,118.13v1.46h-.49v-1.4c0-.22-.11-.38-.33-.38-.24,0-.46,.18-.46,.61v1.16h-.49v-1.4c0-.22-.11-.38-.33-.38-.24,0-.45,.19-.45,.62v1.15h-.49v-2.16h.47v.3c.13-.23,.34-.36,.62-.36,.3,0,.51,.14,.61,.38,.14-.26,.36-.38,.66-.38,.43,0,.68,.28,.68,.75Z"/>
          <path class="cls-1" d="M136.84,119.58c-.02-.08-.04-.17-.05-.25-.15,.19-.4,.31-.71,.31-.45,0-.74-.25-.74-.64,0-.35,.22-.58,.69-.66l.67-.11s.04,0,.06-.02v-.19c0-.19-.14-.28-.43-.28s-.41,.09-.44,.33h-.46c.04-.48,.34-.7,.91-.7s.89,.24,.89,.74v.97c0,.18,.02,.3,.09,.5h-.49Zm-.07-.81v-.23l-.6,.1c-.24,.04-.35,.15-.35,.32,0,.19,.14,.3,.38,.3,.31,0,.57-.21,.57-.5Z"/>
          <path class="cls-1" d="M140.27,119.58c-.02-.08-.04-.17-.05-.25-.15,.19-.4,.31-.71,.31-.45,0-.74-.25-.74-.64,0-.35,.22-.58,.69-.66l.67-.11s.04,0,.06-.02v-.19c0-.19-.14-.28-.43-.28s-.41,.09-.44,.33h-.46c.04-.48,.34-.7,.91-.7s.89,.24,.89,.74v.97c0,.18,.02,.3,.09,.5h-.49Zm-.07-.81v-.23l-.6,.1c-.24,.04-.35,.15-.35,.32,0,.19,.14,.3,.38,.3,.31,0,.57-.21,.57-.5Zm-.33-1.6h-.37l.28-.62h.63l-.54,.62Z"/>
          <path class="cls-1" d="M143.18,117.43v2.14c0,.63-.39,.92-1.02,.92-.56,0-.9-.23-.95-.68h.46c.05,.22,.21,.31,.49,.31,.39,0,.54-.17,.54-.53v-.28c-.14,.19-.36,.3-.63,.3-.56,0-.93-.47-.93-1.14s.39-1.09,.93-1.09c.3,0,.53,.13,.67,.36v-.3h.45Zm-.48,1.04c0-.44-.23-.69-.55-.69s-.54,.25-.54,.69,.21,.72,.54,.72,.55-.27,.55-.71Z"/>
          <path class="cls-1" d="M143.76,116.61h.49v.48h-.49v-.48Zm0,.82h.49v2.16h-.49v-2.16Z"/>
          <path class="cls-1" d="M144.83,116.61h.49v2.98h-.49v-2.98Z"/>
          <path class="cls-1" d="M145.94,119.98h.06c.15,0,.23-.08,.23-.24v-.16h-.3s0-.52,0-.52h.57v.66c0,.33-.17,.5-.51,.5h-.06v-.24Z"/>
          <path class="cls-1" d="M150.12,116.61v2.98h-.43v-.3c-.15,.23-.38,.36-.67,.36-.56,0-.94-.48-.94-1.16s.39-1.11,.91-1.11c.28,0,.5,.1,.64,.29v-1.06h.49Zm-.46,1.88c0-.45-.23-.7-.55-.7s-.54,.25-.54,.7,.21,.73,.54,.73,.55-.28,.55-.73Z"/>
          <path class="cls-1" d="M150.7,116.61h.49v.48h-.49v-.48Zm0,.82h.49v2.16h-.49v-2.16Z"/>
          <path class="cls-1" d="M153.64,118.11v1.47h-.49v-1.37c0-.26-.12-.41-.37-.41-.27,0-.51,.18-.51,.6v1.17h-.49v-2.16h.47v.3c.15-.23,.38-.36,.68-.36,.45,0,.72,.28,.72,.74Z"/>
          <path class="cls-1" d="M155.59,119.58c-.02-.08-.04-.17-.05-.25-.15,.19-.4,.31-.71,.31-.45,0-.74-.25-.74-.64,0-.35,.22-.58,.69-.66l.67-.11s.04,0,.06-.02v-.19c0-.19-.14-.28-.43-.28s-.41,.09-.44,.33h-.46c.04-.48,.34-.7,.91-.7s.89,.24,.89,.74v.97c0,.18,.02,.3,.09,.5h-.49Zm-.75-2.43h-.46l.5-.63h.48l.5,.63h-.46l-.27-.38-.27,.38Zm.68,1.62v-.23l-.6,.1c-.24,.04-.35,.15-.35,.32,0,.19,.14,.3,.38,.3,.31,0,.57-.21,.57-.5Z"/>
          <path class="cls-1" d="M159.6,118.13v1.46h-.49v-1.4c0-.22-.11-.38-.33-.38-.24,0-.46,.18-.46,.61v1.16h-.49v-1.4c0-.22-.11-.38-.33-.38-.24,0-.45,.19-.45,.62v1.15h-.49v-2.16h.47v.3c.13-.23,.34-.36,.62-.36,.3,0,.51,.14,.61,.38,.14-.26,.36-.38,.66-.38,.43,0,.68,.28,.68,.75Z"/>
          <path class="cls-1" d="M160.18,116.61h.49v.48h-.49v-.48Zm0,.82h.49v2.16h-.49v-2.16Z"/>
          <path class="cls-1" d="M161.13,118.52c0-.71,.4-1.15,1.03-1.15,.53,0,.88,.28,.96,.79h-.47c-.06-.26-.22-.39-.48-.39-.37,0-.56,.27-.56,.74s.2,.74,.55,.74c.26,0,.42-.15,.48-.42h.47c-.08,.51-.42,.81-.97,.81-.62,0-1.02-.42-1.02-1.13Z"/>
          <path class="cls-1" d="M164.92,119.58c-.02-.08-.04-.17-.05-.25-.15,.19-.4,.31-.71,.31-.45,0-.74-.25-.74-.64,0-.35,.22-.58,.69-.66l.67-.11s.04,0,.06-.02v-.19c0-.19-.14-.28-.43-.28s-.41,.09-.44,.33h-.46c.04-.48,.34-.7,.91-.7s.89,.24,.89,.74v.97c0,.18,.02,.3,.09,.5h-.49Zm-.07-.81v-.23l-.6,.1c-.24,.04-.35,.15-.35,.32,0,.19,.14,.3,.38,.3,.31,0,.57-.21,.57-.5Z"/>
          <path class="cls-1" d="M165.94,119.98h.06c.15,0,.23-.08,.23-.24v-.16h-.3s0-.52,0-.52h.57v.66c0,.33-.17,.5-.51,.5h-.06v-.24Z"/>
          <path class="cls-1" d="M168.09,118.52c0-.71,.4-1.15,1.03-1.15,.53,0,.88,.28,.96,.79h-.47c-.06-.26-.22-.39-.48-.39-.37,0-.56,.27-.56,.74s.2,.74,.55,.74c.26,0,.42-.15,.48-.42h.47c-.08,.51-.42,.81-.97,.81-.62,0-1.02-.42-1.02-1.13Z"/>
          <path class="cls-1" d="M170.39,118.51c0-.67,.44-1.14,1.08-1.14s1.07,.46,1.07,1.13-.44,1.14-1.07,1.14-1.07-.47-1.07-1.14Zm1.67,0c0-.45-.22-.74-.6-.74s-.59,.29-.59,.74,.23,.74,.59,.74,.6-.3,.6-.75Z"/>
          <path class="cls-1" d="M172.99,116.61h.49v2.98h-.49v-2.98Z"/>
          <path class="cls-1" d="M175.43,119.58c-.02-.08-.04-.17-.05-.25-.15,.19-.4,.31-.71,.31-.45,0-.74-.25-.74-.64,0-.35,.22-.58,.69-.66l.67-.11s.04,0,.06-.02v-.19c0-.19-.14-.28-.43-.28s-.41,.09-.44,.33h-.46c.04-.48,.34-.7,.91-.7s.89,.24,.89,.74v.97c0,.18,.02,.3,.09,.5h-.49Zm-.07-.81v-.23l-.6,.1c-.24,.04-.35,.15-.35,.32,0,.19,.14,.3,.38,.3,.31,0,.57-.21,.57-.5Z"/>
          <path class="cls-1" d="M178.45,118.48c0,.68-.37,1.17-.94,1.17-.29,0-.52-.13-.66-.36v.3h-.44v-2.98h.49v1.06c.14-.18,.36-.29,.64-.29,.52,0,.91,.42,.91,1.1Zm-.48,0c0-.44-.21-.69-.54-.69s-.55,.25-.55,.7,.23,.73,.55,.73,.54-.29,.54-.74Z"/>
          <path class="cls-1" d="M178.78,118.51c0-.67,.44-1.14,1.08-1.14s1.07,.46,1.07,1.13-.44,1.14-1.07,1.14-1.07-.47-1.07-1.14Zm1.67,0c0-.45-.22-.74-.6-.74s-.59,.29-.59,.74,.23,.74,.59,.74,.6-.3,.6-.75Z"/>
          <path class="cls-1" d="M182.58,117.37v.46s-.09,0-.13,0c-.33,0-.57,.21-.58,.64v1.11h-.49v-2.16h.47v.39c.1-.29,.3-.46,.59-.46,.05,0,.09,0,.14,.01Z"/>
          <path class="cls-1" d="M184.27,119.58c-.02-.08-.04-.17-.05-.25-.15,.19-.4,.31-.71,.31-.45,0-.74-.25-.74-.64,0-.35,.22-.58,.69-.66l.67-.11s.04,0,.06-.02v-.19c0-.19-.14-.28-.43-.28s-.41,.09-.44,.33h-.46c.04-.48,.34-.7,.91-.7s.89,.24,.89,.74v.97c0,.18,.02,.3,.09,.5h-.49Zm-.07-.81v-.23l-.6,.1c-.24,.04-.35,.15-.35,.32,0,.19,.14,.3,.38,.3,.31,0,.57-.21,.57-.5Z"/>
          <path class="cls-1" d="M185.88,118.98c0,.16,.05,.21,.2,.21h.24v.4h-.39c-.38,0-.54-.16-.54-.54v-1.26h-.31s0-.36,0-.36h.31s0-.66,0-.66h.49v.68h.44s0,.36,0,.36l-.44-.02v1.2Z"/>
          <path class="cls-1" d="M186.71,116.61h.49v.48h-.49v-.48Zm0,.82h.49v2.16h-.49v-2.16Z"/>
          <path class="cls-1" d="M189.59,117.43l-.75,2.16h-.49l-.77-2.16h.52l.3,.94,.2,.78,.19-.78,.3-.94h.49Z"/>
          <path class="cls-1" d="M191.28,119.58c-.02-.08-.04-.17-.05-.25-.15,.19-.4,.31-.71,.31-.45,0-.74-.25-.74-.64,0-.35,.22-.58,.69-.66l.67-.11s.04,0,.06-.02v-.19c0-.19-.14-.28-.43-.28s-.41,.09-.44,.33h-.46c.04-.48,.34-.7,.91-.7s.89,.24,.89,.74v.97c0,.18,.02,.3,.09,.5h-.49Zm-.07-.81v-.23l-.6,.1c-.24,.04-.35,.15-.35,.32,0,.19,.14,.3,.38,.3,.31,0,.57-.21,.57-.5Z"/>
          <path class="cls-1" d="M195.31,118.64h-1.59c.02,.4,.24,.62,.58,.62,.26,0,.42-.12,.5-.35l.47,.04c-.13,.46-.49,.7-.97,.7-.68,0-1.08-.49-1.08-1.15s.39-1.12,1.04-1.12,1.05,.43,1.05,1.15v.12Zm-1.59-.34h1.1c-.04-.35-.24-.55-.55-.55s-.52,.2-.55,.55Z"/>
          <path class="cls-1" d="M196.74,118.52c0-.71,.4-1.15,1.03-1.15,.53,0,.88,.28,.96,.79h-.47c-.06-.26-.22-.39-.48-.39-.37,0-.56,.27-.56,.74s.2,.74,.55,.74c.26,0,.42-.15,.48-.42h.47c-.08,.51-.42,.81-.97,.81-.62,0-1.02-.42-1.02-1.13Z"/>
          <path class="cls-1" d="M199.04,118.51c0-.67,.44-1.14,1.08-1.14s1.07,.46,1.07,1.13-.44,1.14-1.07,1.14-1.07-.47-1.07-1.14Zm1.67,0c0-.45-.22-.74-.6-.74s-.59,.29-.59,.74,.23,.74,.59,.74,.6-.3,.6-.75Z"/>
          <path class="cls-1" d="M204.68,118.13v1.46h-.49v-1.4c0-.22-.11-.38-.33-.38-.24,0-.46,.18-.46,.61v1.16h-.49v-1.4c0-.22-.11-.38-.33-.38-.24,0-.45,.19-.45,.62v1.15h-.49v-2.16h.47v.3c.13-.23,.34-.36,.62-.36,.3,0,.51,.14,.61,.38,.14-.26,.36-.38,.66-.38,.43,0,.68,.28,.68,.75Z"/>
          <path class="cls-1" d="M206.22,118.51c0-.67,.44-1.14,1.08-1.14s1.07,.46,1.07,1.13-.44,1.14-1.07,1.14-1.07-.47-1.07-1.14Zm1.67,0c0-.45-.22-.74-.6-.74s-.59,.29-.59,.74,.23,.74,.59,.74,.6-.3,.6-.75Z"/>
          <path class="cls-1" d="M212.94,118.13v1.46h-.49v-1.4c0-.22-.11-.38-.33-.38-.24,0-.46,.18-.46,.61v1.16h-.49v-1.4c0-.22-.11-.38-.33-.38-.24,0-.45,.19-.45,.62v1.15h-.49v-2.16h.47v.3c.13-.23,.34-.36,.62-.36,.3,0,.51,.14,.61,.38,.14-.26,.36-.38,.66-.38,.43,0,.68,.28,.68,.75Z"/>
          <path class="cls-1" d="M215.49,118.64h-1.59c.02,.4,.24,.62,.58,.62,.26,0,.42-.12,.5-.35l.47,.04c-.13,.46-.49,.7-.97,.7-.68,0-1.08-.49-1.08-1.15s.39-1.12,1.04-1.12,1.05,.43,1.05,1.15v.12Zm-1.59-.34h1.1c-.04-.35-.24-.55-.55-.55s-.52,.2-.55,.55Z"/>
          <path class="cls-1" d="M215.94,116.61h.49v2.98h-.49v-2.98Z"/>
          <path class="cls-1" d="M218.88,118.11v1.47h-.49v-1.37c0-.26-.12-.41-.37-.41-.27,0-.51,.18-.51,.6v1.17h-.49v-2.98h.49v1.1c.15-.22,.37-.33,.66-.33,.45,0,.72,.28,.72,.74Z"/>
          <path class="cls-1" d="M219.34,118.51c0-.67,.44-1.14,1.08-1.14s1.07,.46,1.07,1.13-.44,1.14-1.07,1.14-1.07-.47-1.07-1.14Zm1.67,0c0-.45-.22-.74-.6-.74s-.59,.29-.59,.74,.23,.74,.59,.74,.6-.3,.6-.75Z"/>
          <path class="cls-1" d="M223.14,117.37v.46s-.09,0-.13,0c-.33,0-.57,.21-.58,.64v1.11h-.49v-2.16h.47v.39c.1-.29,.3-.46,.59-.46,.05,0,.09,0,.14,.01Z"/>
          <path class="cls-1" d="M224.5,118.1c0-.94,.56-1.55,1.37-1.55,.68,0,1.17,.39,1.24,1.01h-.49c-.07-.36-.34-.56-.72-.56-.56,0-.88,.43-.88,1.11s.32,1.13,.88,1.13c.43,0,.69-.26,.74-.67h.49c-.07,.7-.55,1.11-1.26,1.11-.81,0-1.37-.64-1.37-1.57Z"/>
          <path class="cls-1" d="M230.01,119.58l-.49-.79-.52,.79h-.56l.84-1.14-.74-1.02h.57l.42,.67,.43-.67h.55l-.73,1.01,.81,1.15h-.58Z"/>
          <path class="cls-1" d="M234.43,118.72c0,.51-.34,.87-.98,.87h-1.38v-2.98h1.36c.54,0,.88,.27,.88,.73,0,.31-.16,.53-.46,.64,.4,.12,.57,.38,.57,.74Zm-1.85-1.68v.78h.75c.33,0,.48-.16,.48-.4s-.15-.38-.46-.38h-.78Zm1.35,1.65c0-.3-.19-.46-.53-.46h-.82v.92h.81c.36,0,.54-.18,.54-.47Z"/>
          <path class="cls-1" d="M237.98,116.61v2.98h-.43v-.3c-.15,.23-.38,.36-.67,.36-.56,0-.94-.48-.94-1.16s.39-1.11,.91-1.11c.28,0,.5,.1,.64,.29v-1.06h.49Zm-.46,1.88c0-.45-.23-.7-.55-.7s-.54,.25-.54,.7,.21,.73,.54,.73,.55-.28,.55-.73Z"/>
          <path class="cls-1" d="M238.44,118.51c0-.67,.44-1.14,1.08-1.14s1.07,.46,1.07,1.13-.44,1.14-1.07,1.14-1.07-.47-1.07-1.14Zm1.67,0c0-.45-.22-.74-.6-.74s-.59,.29-.59,.74,.23,.74,.59,.74,.6-.3,.6-.75Z"/>
          <path class="cls-1" d="M245.16,118.13v1.46h-.49v-1.4c0-.22-.11-.38-.33-.38-.24,0-.46,.18-.46,.61v1.16h-.49v-1.4c0-.22-.11-.38-.33-.38-.24,0-.45,.19-.45,.62v1.15h-.49v-2.16h.47v.3c.13-.23,.34-.36,.62-.36,.3,0,.51,.14,.61,.38,.14-.26,.36-.38,.66-.38,.43,0,.68,.28,.68,.75Z"/>
          <path class="cls-1" d="M247.71,118.64h-1.59c.02,.4,.24,.62,.58,.62,.26,0,.42-.12,.5-.35l.47,.04c-.13,.46-.49,.7-.97,.7-.68,0-1.08-.49-1.08-1.15s.39-1.12,1.04-1.12,1.05,.43,1.05,1.15v.12Zm-1.59-.34h1.1c-.04-.35-.24-.55-.55-.55s-.52,.2-.55,.55Z"/>
          <path class="cls-1" d="M249.36,117.37v.46s-.09,0-.13,0c-.33,0-.57,.21-.58,.64v1.11h-.49v-2.16h.47v.39c.1-.29,.3-.46,.59-.46,.05,0,.09,0,.14,.01Z"/>
          <path class="cls-1" d="M249.6,118.52c0-.71,.4-1.15,1.03-1.15,.53,0,.88,.28,.96,.79h-.47c-.06-.26-.22-.39-.48-.39-.37,0-.56,.27-.56,.74s.2,.74,.55,.74c.26,0,.42-.15,.48-.42h.47c-.08,.51-.42,.81-.97,.81-.62,0-1.02-.42-1.02-1.13Z"/>
          <path class="cls-1" d="M253.39,119.58c-.02-.08-.04-.17-.05-.25-.15,.19-.4,.31-.71,.31-.45,0-.74-.25-.74-.64,0-.35,.22-.58,.69-.66l.67-.11s.04,0,.06-.02v-.19c0-.19-.14-.28-.43-.28s-.41,.09-.44,.33h-.46c.04-.48,.34-.7,.91-.7s.89,.24,.89,.74v.97c0,.18,.02,.3,.09,.5h-.49Zm-.07-.81v-.23l-.6,.1c-.24,.04-.35,.15-.35,.32,0,.19,.14,.3,.38,.3,.31,0,.57-.21,.57-.5Z"/>
          <path class="cls-1" d="M256.29,116.61v2.98h-.43v-.3c-.15,.23-.38,.36-.67,.36-.56,0-.94-.48-.94-1.16s.39-1.11,.91-1.11c.28,0,.5,.1,.64,.29v-1.06h.49Zm-.46,1.88c0-.45-.23-.7-.55-.7s-.54,.25-.54,.7,.21,.73,.54,.73,.55-.28,.55-.73Z"/>
          <path class="cls-1" d="M256.75,118.51c0-.67,.44-1.14,1.08-1.14s1.07,.46,1.07,1.13-.44,1.14-1.07,1.14-1.07-.47-1.07-1.14Zm1.67,0c0-.45-.22-.74-.6-.74s-.59,.29-.59,.74,.23,.74,.59,.74,.6-.3,.6-.75Z"/>
          <path class="cls-1" d="M259.36,119.06h.59v.53h-.59v-.53Z"/>
        </g>
      </g>
      <g>
        <path class="cls-1" d="M99.75,22.75V92.57h-19.61v-26.87h-24.03v26.87h-19.61V22.75h19.61v25.5h24.03V22.75h19.61Z"/>
        <path class="cls-1" d="M110.16,22.75h19.61V92.57h-19.61V22.75Z"/>
        <path class="cls-1" d="M201.2,92.57h-20.2c-.88-1.86-1.28-4.02-1.37-7.06l-.3-7.94c-.29-7.94-4.02-9.12-9.51-9.12h-10.2v24.12h-19.61V22.75h34.32c19.02,0,25.99,9.81,25.99,20.69,0,6.77-3.43,13.04-10.89,16.38,8.14,3.04,9.32,8.93,9.61,16.38l.39,9.32c.1,2.94,.78,5.39,1.76,7.06Zm-29.81-38.44c5.79,0,8.73-2.94,8.73-8.04s-2.94-8.04-8.73-8.04h-11.77v16.08h11.77Z"/>
        <path class="cls-1" d="M204.59,57.66c0-22.25,14.9-36.47,36.66-36.47s36.66,14.21,36.66,36.47-15,36.47-36.66,36.47-36.66-14.21-36.66-36.47Zm52.94,0c0-12.35-6.47-19.51-16.27-19.51s-16.27,7.16-16.27,19.51,6.47,19.51,16.27,19.51,16.27-7.06,16.27-19.51Z"/>
      </g>
      <g>
        <polygon class="cls-1" points="199.88 7.23 199.88 2.21 202.83 2.21 202.83 2.8 200.47 2.8 200.47 4.28 202.24 4.28 202.24 4.87 200.47 4.87 200.47 6.64 202.83 6.64 202.83 7.23 199.88 7.23"/>
        <rect class="cls-1" x="203.42" y="6.64" width="1.77" height=".59"/>
        <polygon class="cls-1" points="205.19 6.64 205.19 2.8 204.01 2.8 204.01 2.21 205.78 2.21 205.78 6.64 205.19 6.64"/>
        <polygon class="cls-1" points="214.98 6.64 214.98 2.8 215.57 2.8 215.57 5.16 215.86 5.16 215.86 4.87 216.16 4.87 216.16 4.57 216.45 4.57 216.45 4.28 216.75 4.28 216.75 3.98 217.04 3.98 217.04 3.69 217.34 3.69 217.34 3.39 217.63 3.39 217.63 2.8 218.22 2.8 218.22 6.64 217.63 6.64 217.63 4.28 217.34 4.28 217.34 4.57 217.04 4.57 217.04 4.87 216.75 4.87 216.75 5.16 216.45 5.16 216.45 5.46 216.16 5.46 216.16 5.75 215.86 5.75 215.86 6.05 215.57 6.05 215.57 6.64 214.98 6.64"/>
        <rect class="cls-1" x="215.57" y="2.21" width="2.06" height=".59"/>
        <rect class="cls-1" x="215.57" y="6.64" width="2.06" height=".59"/>
        <polygon class="cls-1" points="220.29 7.23 220.29 3.1 219.7 3.1 219.7 3.39 219.11 3.39 219.11 2.8 219.7 2.8 219.7 2.51 220.29 2.51 220.29 2.21 220.88 2.21 220.88 7.23 220.29 7.23"/>
        <polygon class="cls-1" points="229.29 4.87 229.29 2.21 232.24 2.21 232.24 2.8 229.88 2.8 229.88 4.28 231.95 4.28 231.95 4.87 229.29 4.87"/>
        <rect class="cls-1" x="229.29" y="6.64" width="2.65" height=".59"/>
        <rect class="cls-1" x="231.95" y="4.87" width=".59" height="1.77"/>
        <polygon class="cls-1" points="233.13 3.39 233.13 2.21 236.67 2.21 236.67 3.39 236.08 3.39 236.08 2.8 233.72 2.8 233.72 3.39 233.13 3.39"/>
        <rect class="cls-1" x="234.31" y="4.57" width=".59" height="2.65"/>
        <rect class="cls-1" x="234.9" y="3.98" width=".59" height=".59"/>
        <rect class="cls-1" x="235.49" y="3.39" width=".59" height=".59"/>
        <rect class="cls-1" x="237.26" y="2.8" width=".59" height="1.77"/>
        <rect class="cls-1" x="237.55" y="6.64" width="2.36" height=".59"/>
        <rect class="cls-1" x="237.85" y="2.21" width="2.06" height=".59"/>
        <polygon class="cls-1" points="239.91 6.64 239.91 5.16 237.85 5.16 237.85 4.57 239.91 4.57 239.91 2.8 240.5 2.8 240.5 6.64 239.91 6.64"/>
        <polygon class="cls-1" points="241.09 6.64 241.09 2.8 241.68 2.8 241.68 5.16 241.97 5.16 241.97 4.87 242.27 4.87 242.27 4.57 242.57 4.57 242.57 4.28 242.86 4.28 242.86 3.98 243.15 3.98 243.15 3.69 243.45 3.69 243.45 3.39 243.74 3.39 243.74 2.8 244.34 2.8 244.34 6.64 243.74 6.64 243.74 4.28 243.45 4.28 243.45 4.57 243.15 4.57 243.15 4.87 242.86 4.87 242.86 5.16 242.57 5.16 242.57 5.46 242.27 5.46 242.27 5.75 241.97 5.75 241.97 6.05 241.68 6.05 241.68 6.64 241.09 6.64"/>
        <rect class="cls-1" x="241.68" y="2.21" width="2.06" height=".59"/>
        <rect class="cls-1" x="241.68" y="6.64" width="2.06" height=".59"/>
        <rect class="cls-1" x="251.96" y="2.8" width=".59" height="1.48"/>
        <rect class="cls-1" x="251.96" y="4.87" width=".59" height="1.77"/>
        <rect class="cls-1" x="252.55" y="2.21" width="2.06" height=".59"/>
        <rect class="cls-1" x="252.55" y="4.28" width="2.06" height=".59"/>
        <rect class="cls-1" x="252.55" y="6.64" width="2.06" height=".59"/>
        <rect class="cls-1" x="254.62" y="2.8" width=".59" height="1.48"/>
        <rect class="cls-1" x="254.62" y="4.87" width=".59" height="1.77"/>
        <polygon class="cls-1" points="255.8 3.39 255.8 2.21 259.34 2.21 259.34 3.39 258.75 3.39 258.75 2.8 256.39 2.8 256.39 3.39 255.8 3.39"/>
        <rect class="cls-1" x="256.98" y="4.57" width=".59" height="2.65"/>
        <rect class="cls-1" x="257.57" y="3.98" width=".59" height=".59"/>
        <rect class="cls-1" x="258.16" y="3.39" width=".59" height=".59"/>
        <rect class="cls-1" x="259.92" y="2.8" width=".59" height="1.48"/>
        <rect class="cls-1" x="259.92" y="4.87" width=".59" height="1.77"/>
        <rect class="cls-1" x="260.52" y="2.21" width="2.06" height=".59"/>
        <rect class="cls-1" x="260.52" y="4.28" width="2.06" height=".59"/>
        <rect class="cls-1" x="260.52" y="6.64" width="2.06" height=".59"/>
        <rect class="cls-1" x="262.58" y="2.8" width=".59" height="1.48"/>
        <rect class="cls-1" x="262.58" y="4.87" width=".59" height="1.77"/>
        <rect class="cls-1" x="263.76" y="2.21" width="2.36" height=".59"/>
        <polygon class="cls-1" points="263.76 7.23 263.76 6.05 264.35 6.05 264.35 6.64 266.71 6.64 266.71 7.23 263.76 7.23"/>
        <rect class="cls-1" x="264.35" y="5.46" width=".59" height=".59"/>
        <rect class="cls-1" x="264.94" y="4.87" width=".59" height=".59"/>
        <rect class="cls-1" x="265.53" y="4.28" width=".59" height=".59"/>
        <rect class="cls-1" x="266.12" y="2.8" width=".59" height="1.48"/>
        <polygon class="cls-1" points="268.48 6.05 268.48 4.87 267.3 4.87 267.3 4.28 268.48 4.28 268.48 3.1 269.07 3.1 269.07 4.28 270.25 4.28 270.25 4.87 269.07 4.87 269.07 6.05 268.48 6.05"/>
        <rect class="cls-1" x="270.84" y="2.21" width="2.65" height=".59"/>
        <rect class="cls-1" x="270.84" y="6.64" width="2.65" height=".59"/>
        <rect class="cls-1" x="271.72" y="4.28" width="1.77" height=".59"/>
        <rect class="cls-1" x="273.49" y="2.8" width=".59" height="1.48"/>
        <rect class="cls-1" x="273.49" y="4.87" width=".59" height="1.77"/>
        <rect class="cls-1" x="274.67" y="2.21" width="2.65" height=".59"/>
        <rect class="cls-1" x="274.67" y="6.64" width="2.65" height=".59"/>
        <rect class="cls-1" x="275.56" y="4.28" width="1.77" height=".59"/>
        <rect class="cls-1" x="277.33" y="2.8" width=".59" height="1.48"/>
        <rect class="cls-1" x="277.33" y="4.87" width=".59" height="1.77"/>
      </g>
      <g>
        <path class="cls-1" d="M88.02,3.18c.19,0,.37,0,.56,.02,.16,0,.32,.02,.49,.04,.16,.02,.33,.03,.49,.06,.58,.09,1.15,.23,1.68,.47,.24,.11,.48,.24,.69,.4,.15,.12,.29,.26,.39,.43,.11,.17,.16,.36,.14,.57-.01,.15-.06,.29-.14,.41-.09,.16-.22,.28-.36,.4-.22,.18-.47,.32-.74,.44-.32,.14-.65,.25-1,.33-.22,.05-.43,.09-.65,.13-.13,.02-.27,.04-.41,.05-.18,.02-.36,.04-.54,.05-.29,.02-.57,.03-.86,.01-.11,0-.21,0-.32-.01-.1,0-.2-.01-.31-.02-.1,0-.2-.02-.29-.03-.11-.01-.22-.03-.33-.04-.15-.02-.3-.05-.45-.08-.46-.09-.9-.22-1.32-.42-.24-.11-.47-.24-.67-.41-.15-.12-.28-.27-.38-.44-.09-.17-.13-.34-.12-.53,.01-.15,.06-.28,.14-.41,.1-.17,.24-.3,.39-.42,.22-.17,.45-.3,.71-.41,.33-.15,.68-.25,1.03-.34,.21-.05,.42-.09,.63-.12,.16-.02,.33-.04,.49-.06,.35-.04,.7-.05,1.05-.05Zm.03,3.52s.1,0,.16-.01c.17-.02,.33-.07,.49-.14,.16-.07,.3-.18,.44-.29,.03-.03,.06-.06,.09-.09,.02-.02,.04-.05,.06-.07,.31-.39,.42-.84,.32-1.33-.13-.69-.72-1.24-1.46-1.3-.17-.01-.33,0-.49,.04-.82,.19-1.41,1.02-1.21,1.93,.16,.72,.8,1.26,1.61,1.27Zm-3.08-1.49s.01,.05,.02,.08c.05,.16,.14,.3,.25,.43,.16,.17,.35,.3,.56,.41,.3,.16,.62,.27,.95,.35,.01,0,.03,0,.04,0-.37-.34-.58-.77-.63-1.27h-1.19Zm4.28,1.27s.07-.02,.11-.03c.31-.08,.61-.18,.89-.34,.2-.11,.39-.24,.55-.41,.09-.1,.17-.22,.22-.35,.02-.05,.04-.1,.04-.15-.06,0-1.16,0-1.19,0-.04,.5-.25,.92-.62,1.27Zm0-2.81s0,0,0,0c.37,.34,.59,.76,.63,1.26h1.19s-.01-.06-.02-.08c-.05-.17-.15-.32-.27-.45-.13-.13-.28-.24-.43-.33-.26-.15-.54-.26-.83-.34-.09-.02-.17-.05-.26-.07Zm-2.45,0s-.03,0-.04,0c-.05,.01-.11,.03-.16,.04-.31,.08-.61,.2-.89,.36-.19,.11-.36,.24-.5,.41-.1,.12-.18,.25-.21,.4,0,.02,0,.03,0,.05h1.19c.04-.51,.26-.92,.63-1.27Zm3.31,2.8s0,0,0,0c0,0,.01,0,.02,0,.17-.05,.33-.09,.5-.14,.3-.09,.59-.21,.87-.37,.16-.09,.3-.19,.43-.32,.09-.09,.17-.19,.22-.31,.02-.04,.04-.09,.04-.13h-.85c-.02,.11-.04,.21-.09,.3-.09,.2-.23,.37-.4,.51-.18,.16-.39,.29-.61,.39-.04,.02-.09,.04-.13,.06Zm-4.17,0h0s-.03-.02-.04-.03c-.12-.05-.24-.11-.35-.18-.21-.13-.4-.27-.55-.46-.13-.16-.23-.33-.27-.54,0-.02,0-.05-.01-.07h-.85s0,.03,.01,.04c.02,.08,.06,.15,.1,.21,.07,.11,.16,.2,.25,.28,.19,.16,.4,.28,.62,.38,.3,.14,.6,.24,.92,.32,.06,.02,.12,.03,.17,.04Zm6.25-1.54s0-.03,0-.04c-.02-.08-.06-.16-.11-.23-.09-.12-.2-.23-.32-.32-.19-.15-.4-.26-.62-.35-.32-.14-.65-.24-.98-.32-.01,0-.03,0-.04,0,0,0,.02,.01,.02,.02,.12,.06,.24,.11,.36,.18,.21,.12,.4,.27,.55,.45,.13,.15,.22,.32,.27,.51,0,.04,.02,.07,.02,.11h.85Zm-6.24-1.27s0,0,0,0c0,0-.01,0-.02,0-.17,.05-.33,.09-.5,.14-.31,.09-.61,.22-.88,.38-.17,.1-.32,.21-.46,.36-.1,.1-.17,.22-.21,.36,0,.01,0,.03,0,.04h.85s0-.02,0-.03c.02-.13,.07-.26,.14-.37,.11-.19,.25-.34,.42-.47,.19-.15,.4-.27,.63-.37,.01,0,.03-.01,.04-.02Z"/>
        <path class="cls-1" d="M92.32,6.5c0,.16-.05,.28-.19,.36-.21,.12-.49,.01-.54-.25-.02-.12,0-.23,.07-.33,.09-.12,.2-.16,.34-.14,.15,.02,.25,.11,.29,.26,.01,.04,.01,.08,.02,.1Zm-.12,.02c0-.07-.02-.13-.06-.19-.1-.14-.28-.14-.38,0-.07,.1-.07,.27,0,.37,.09,.13,.28,.14,.38,0,.04-.06,.06-.12,.06-.19Z"/>
        <path class="cls-1" d="M88.33,5.81c0-.23,.19-.41,.41-.41,.2,0,.41,.16,.41,.41,0,.23-.18,.41-.41,.41-.25,0-.41-.21-.41-.41Z"/>
        <path class="cls-1" d="M88.74,4.78c-.23,0-.41-.19-.41-.41,0-.2,.16-.41,.41-.41,.23,0,.41,.18,.41,.41,0,.25-.2,.41-.41,.41Z"/>
        <path class="cls-1" d="M87.31,4.78c-.21,0-.41-.17-.41-.41,0-.22,.17-.41,.41-.41,.25,0,.41,.21,.41,.41,0,.22-.18,.41-.41,.41Z"/>
        <path class="cls-1" d="M87.31,5.4c.22,0,.41,.18,.41,.41,0,.21-.17,.41-.41,.41-.23,0-.41-.19-.41-.41,0-.25,.21-.41,.41-.41Z"/>
        <path class="cls-1" d="M86.71,4.5c.1,.32,.31,.48,.64,.48v.23c-.14,0-.28,.03-.4,.11-.12,.09-.19,.2-.24,.35-.08-.15-.12-.32-.13-.49-.02-.24,.02-.46,.12-.68Z"/>
        <path class="cls-1" d="M88.14,4.42h-.23c0-.33-.16-.54-.48-.64,.21-.09,.42-.13,.65-.12,.18,0,.36,.05,.53,.13-.31,.1-.47,.31-.47,.64Z"/>
        <path class="cls-1" d="M88.67,5.21v-.24c.32,0,.54-.14,.65-.45,.07,.14,.1,.29,.11,.45,.02,.23-.02,.46-.12,.68-.05-.15-.13-.26-.25-.34-.12-.08-.26-.11-.4-.1Z"/>
        <path class="cls-1" d="M87.91,5.74h.23c-.01,.32,.13,.53,.43,.65-.28,.14-.75,.17-1.12,0,.31-.11,.46-.32,.45-.65Z"/>
        <path class="cls-1" d="M88.02,5.3c-.1,0-.21-.08-.21-.21,0-.12,.1-.21,.21-.21,.12,0,.21,.09,.21,.21,0,.13-.11,.22-.21,.21Z"/>
        <path class="cls-1" d="M91.81,6.31c.07,0,.13,0,.2,0,.09,0,.13,.11,.09,.19-.01,.02-.03,.03-.05,.04,0,0-.02,0-.04,.01,.03,.06,.06,.11,.09,.18-.02,0-.04,0-.05,0-.03,0-.04,0-.06-.03-.02-.04-.04-.08-.06-.12,0-.02-.02-.02-.04-.01v.17h-.08s-.01-.33,0-.41Zm.09,.16s.01,0,.02,0c.02,0,.04,0,.06,0,.03,0,.04-.01,.04-.04,0-.03,0-.04-.04-.05-.03,0-.05,0-.08,0v.09Z"/>
        <path class="cls-1" d="M94.17,0V9.73H36.5V0h57.67Zm-12.42,.47H48.74V9.25h33.01V.47Zm.49,8.79h11.39V.47h-11.39V9.25ZM36.93,.46V9.25h11.33V.46h-11.33Z"/>
        <path class="cls-1" d="M49.8,7.55V2.72c.77,0,1.54-.04,2.3,.01,.47,.03,.78,.36,.83,.84,.03,.3,0,.63-.08,.92-.06,.21-.27,.37-.42,.57-.02-.02,0,.01,.04,.03,.29,.16,.45,.37,.44,.73-.02,.41,.02,.82,.05,1.22,.01,.15,.07,.29,.11,.46h-1.01c-.02-.33-.04-.68-.06-1.03-.02-.23-.02-.47-.08-.69-.03-.11-.16-.24-.27-.26-.23-.05-.48-.04-.72-.06-.16-.01-.15,.11-.15,.21,0,.55,0,1.11,0,1.66,0,.2-.05,.25-.25,.22-.24-.03-.48,0-.73,0Zm.99-2.86c.28,0,.53,0,.79,0,.19,0,.33-.12,.36-.3,.03-.21,.05-.43,0-.63-.03-.13-.2-.28-.33-.3-.26-.05-.54-.01-.82-.01v1.25Z"/>
        <path class="cls-1" d="M77.52,2.67c.71,0,1.4-.04,2.08,.01,.41,.03,.82,.3,.94,.81,.09,.4,.14,.82,.14,1.24,0,.56-.03,1.12-.09,1.68-.07,.67-.62,1.14-1.35,1.16-.51,.02-1.03,0-1.54,0-.11,0-.18-.01-.18-.15,0-1.57,0-3.14,0-4.75Zm1,4.14c.11,0,.2,0,.28,0,.56,0,.75-.12,.83-.68,.07-.49,.07-.99,.07-1.48,0-.28-.06-.55-.12-.83-.04-.2-.17-.36-.38-.38-.22-.02-.44,0-.68,0v3.38Z"/>
        <path class="cls-1" d="M65.38,5.02c.63,.17,.63,.65,.66,1.12,.02,.44,.03,.89,.05,1.36h-.97c-.02-.33-.03-.68-.06-1.02-.02-.25-.05-.51-.1-.75-.02-.07-.11-.18-.18-.19-.3-.04-.6-.06-.93-.09v2.1h-.89V2.67c.16,0,.31,0,.47,0,.57,.01,1.15-.02,1.71,.05,.62,.08,.92,.47,.91,1.1,0,.48-.07,.96-.65,1.19Zm-1.54-.34s.07,.01,.1,.01c.18,0,.37,0,.55,0,.31,0,.47-.11,.54-.37,.09-.34-.01-.69-.23-.82-.05-.03-.1-.06-.16-.06-.26,0-.52,0-.8,0v1.25Z"/>
        <path class="cls-1" d="M56.45,5.81h.91c0,.17,0,.34,0,.5,.03,.41,.28,.63,.63,.59,.38-.05,.55-.31,.46-.69-.09-.36-.41-.51-.68-.71-.35-.26-.71-.5-1.01-.81-.37-.37-.4-.86-.26-1.35,.1-.34,.31-.62,.66-.7,.35-.08,.74-.13,1.09-.09,.64,.08,.97,.5,1.02,1.15,0,.13,0,.26,0,.41h-.84c-.04-.17-.06-.35-.12-.51-.1-.29-.38-.4-.67-.28-.22,.09-.34,.39-.2,.63,.09,.15,.23,.29,.37,.4,.34,.26,.71,.5,1.05,.76,.65,.5,.77,1.49,.24,2.12-.14,.16-.36,.3-.56,.34-.36,.06-.74,.09-1.1,.03-.64-.1-.94-.47-1.01-1.16-.02-.2,0-.4,0-.62Z"/>
        <path class="cls-1" d="M71.08,4.21c-.3,0-.55,0-.81,0-.05,0-.13-.08-.15-.13-.03-.1-.02-.21-.04-.31-.05-.34-.17-.48-.43-.48-.28,0-.57,.23-.57,.51-.01,.81-.01,1.62,.01,2.43,0,.26,.11,.52,.4,.63,.23,.09,.4,.04,.49-.19,.06-.16,.08-.34,.11-.51,.02-.11,.02-.22,.04-.34h.88c.11,1.14-.45,1.93-1.46,1.82-.12-.01-.24,0-.36-.02-.7-.12-.97-.4-1.06-1.21-.1-.92-.11-1.84,.03-2.76,.13-.79,.62-1.15,1.56-1.11,.84,.04,1.22,.5,1.29,1.16,.02,.16,.03,.32,.05,.52Z"/>
        <path class="cls-1" d="M54.52,4.65h1.49v.67h-1.48v1.49h1.56v.74h-2.53V2.68h2.54v.74h-1.57v1.22Z"/>
        <path class="cls-1" d="M75.44,6.81h1.67c0,.23,0,.44,0,.65,0,.04-.1,.1-.15,.1-.79,0-1.58,0-2.39,0V2.68h2.54c0,.21,.01,.41,0,.62,0,.05-.13,.12-.2,.12-.48,.01-.96,0-1.46,0v1.21h1.5v.68h-1.51v1.49Z"/>
        <path class="cls-1" d="M71.2,2.68h3.06c0,.21,.01,.41,0,.61,0,.05-.1,.13-.16,.13-.26,.01-.53,0-.82,0V7.55h-.98V3.43h-1.08v-.75Z"/>
        <path class="cls-1" d="M61.58,7.55h-.89V3.44h-1.09v-.75h3.06v.73h-1.08V7.55Z"/>
        <path class="cls-1" d="M66.68,2.68h.85V7.54h-.85V2.68Z"/>
        <path class="cls-1" d="M37.84,8.48v-.42c.18-.02,.35-.02,.52-.05,.21-.04,.35-.13,.35-.38,0-1.78,0-3.56-.01-5.34,0-.43-.1-.52-.52-.54-.1,0-.21,0-.33,0v-.47c.08,0,.17,0,.25,0,1.77,0,3.54-.01,5.31,0,.48,0,.96,.09,1.43,.18,.54,.11,.86,.47,.98,1.01,.11,.5,.12,1-.18,1.44-.37,.53-.92,.78-1.54,.88-.05,0-.1,0-.14,0-.01,0-.03,.02-.05,.03,.02,.04,.04,.08,.07,.11,.61,.79,1.22,1.57,1.84,2.35,.29,.37,.7,.52,1.14,.62,.12,.03,.25,.05,.39,.07v.5c-.08,0-.16,.01-.23,.01-1.07,0-2.14,0-3.21,0-.17,0-.27-.05-.34-.2-.54-1.12-1.42-2-2.19-2.98,0,.08,0,.16,0,.24,.03,.6,.06,1.2,.1,1.8,.03,.5,.28,.71,.79,.7,.04,0,.08,0,.13,0v.42h-4.53Zm3.62-3.93c.6,0,1.18-.02,1.5-.59,.27-.49,.31-1.03-.02-1.5-.36-.51-.94-.41-1.48-.41v2.5Z"/>
      </g>
    </g>
  </g>
</svg>